<svg xmlns="http://www.w3.org/2000/svg" width="1024" height="1024" viewBox="0 0 1024 1024"><path d="M682.638 512c0-93.97-76.648-170.631-170.631-170.631S341.376 418.017 341.376 512s76.648 170.631 170.631 170.631S682.638 605.983 682.638 512m92.002 0c0 145.298-117.316 262.634-262.634 262.634S249.372 657.318 249.372 512s117.316-262.634 262.634-262.634S774.64 366.682 774.64 512m72-273.294c0 33.994-27.339 61.32-61.32 61.32S724 272.687 724 238.706s27.339-61.32 61.32-61.32 61.32 27.339 61.32 61.32M512 92.044c-74.642 0-234.632-6.005-301.951 20.672-23.34 9.336-40.655 20.672-58.671 38.655s-29.326 35.325-38.655 58.671c-26.67 67.332-20.672 227.303-20.672 301.951s-6.005 234.632 20.672 301.951c9.336 23.34 20.672 40.655 38.655 58.671s35.325 29.326 58.671 38.655c67.332 26.67 227.303 20.672 301.951 20.672s234.632 6.005 301.951-20.672c23.34-9.336 40.655-20.672 58.671-38.655s29.326-35.325 38.655-58.671c26.67-67.332 20.672-227.303 20.672-301.951s6.005-234.632-20.672-301.951c-9.336-23.34-20.672-40.655-38.655-58.671s-35.325-29.326-58.671-38.655C746.619 86.046 586.648 92.044 512 92.044M1023.939 512c0 70.662.662 140.656-3.344 211.306-4.012 81.985-22.658 154.641-82.667 214.643s-132.658 78.648-214.643 82.667c-70.662 4.012-140.656 3.344-211.306 3.344s-140.656.662-211.306-3.344c-81.985-4.012-154.641-22.658-214.643-82.667S7.382 805.291 3.363 723.306C-.649 652.644.019 582.65.019 512s-.662-140.656 3.344-211.306C7.375 218.709 26.021 146.053 86.03 86.051S218.688 7.403 300.673 3.384C371.335-.628 441.329.04 511.979.04s140.656-.662 211.306 3.344c81.985 4.012 154.641 22.658 214.643 82.667s78.648 132.658 82.667 214.643c4.012 70.662 3.344 140.656 3.344 211.306"/></svg>