<?xml version="1.0" encoding="UTF-8"?>
<svg id="_Слой_1" data-name="Слой 1" xmlns="http://www.w3.org/2000/svg" viewBox="0 0 113.06 58.78">
  <defs>
    <style>
      .cls-1 {
        fill: #1d1d1b;
      }
    </style>
  </defs>
  <g>
    <path class="cls-1" d="m18.28,31.21c0,.3-.02.57-.05.8-.03.23-.09.42-.18.57-.08.15-.18.26-.29.33-.11.07-.23.1-.37.1H1.62c-.39,0-.76-.13-1.1-.39-.35-.26-.52-.72-.52-1.38V1.93C0,1.27.17.81.52.55c.35-.26.71-.39,1.1-.39h15.59c.14,0,.26.03.37.1.11.07.2.18.27.33.07.15.12.34.17.57.04.23.06.51.06.85,0,.3-.02.57-.06.8-.04.23-.1.42-.17.56-.07.14-.16.25-.27.32-.11.07-.23.1-.37.1H4.37v10.31h11.02c.14,0,.26.04.37.11.11.08.2.18.28.32.08.14.13.32.17.56.03.24.05.52.05.84,0,.3-.02.57-.05.79-.03.22-.09.4-.17.53-.08.14-.17.23-.28.29-.11.06-.23.09-.37.09H4.37v11.76h13.03c.14,0,.26.03.37.1.11.07.21.17.29.32.08.14.14.33.18.56.03.23.05.51.05.85Z"/>
    <path class="cls-1" d="m42.43,31.1c0,.34-.02.62-.05.85-.03.23-.09.42-.17.58-.08.16-.17.28-.28.36-.11.08-.24.11-.39.11h-14.52c-.39,0-.76-.13-1.1-.39-.35-.26-.52-.72-.52-1.38V.81c0-.13.03-.25.1-.36.07-.1.19-.18.36-.24.17-.06.4-.11.69-.15.29-.04.63-.06,1.04-.06s.77.02,1.05.06c.28.04.5.09.67.15.17.06.29.14.36.24.07.1.1.22.1.36v28.41h11.78c.15,0,.28.04.39.11.11.08.2.19.28.33.08.14.13.33.17.57.03.24.05.53.05.86Z"/>
    <path class="cls-1" d="m71.86,31.46c.14.37.21.67.22.9,0,.23-.06.4-.19.52-.14.12-.36.19-.67.23-.31.03-.73.05-1.26.05s-.94-.01-1.26-.04c-.31-.03-.55-.07-.71-.13-.16-.06-.28-.14-.36-.24s-.15-.23-.22-.38l-2.82-8h-13.66l-2.69,7.9c-.05.15-.12.28-.2.39-.08.11-.21.2-.37.28-.16.08-.39.13-.69.17-.3.03-.68.05-1.16.05s-.89-.02-1.21-.06c-.31-.04-.53-.12-.66-.24-.13-.12-.19-.29-.18-.52,0-.23.08-.53.22-.9L55.02.91c.07-.19.16-.34.27-.46.11-.12.27-.21.48-.28.21-.07.48-.11.81-.14s.75-.04,1.26-.04c.54,0,.99.01,1.35.04s.64.07.86.14c.22.07.39.17.51.29.12.13.21.28.28.47l11.02,30.52Zm-14.14-26.94h-.03l-5.66,16.38h11.43l-5.74-16.38Z"/>
    <path class="cls-1" d="m113.06,32.35c0,.14-.04.25-.11.36s-.19.18-.37.24c-.18.06-.4.11-.67.15-.27.04-.62.06-1.06.06-.4,0-.75-.02-1.03-.06s-.51-.09-.68-.15c-.17-.06-.28-.14-.35-.24s-.1-.22-.1-.36V3.73h-.05l-11.58,28.74c-.05.12-.12.22-.22.3-.09.08-.23.16-.41.22-.18.06-.39.1-.63.13-.24.03-.54.04-.87.04-.36,0-.66-.02-.91-.05s-.47-.08-.63-.14c-.17-.06-.3-.13-.39-.22-.09-.08-.16-.18-.19-.28l-11.07-28.74h-.03v28.62c0,.14-.04.25-.1.36-.07.1-.19.18-.37.24-.17.06-.4.11-.68.15s-.64.06-1.07.06-.77-.02-1.05-.06-.5-.09-.67-.15c-.17-.06-.28-.14-.34-.24s-.09-.22-.09-.36V2.13c0-.71.19-1.22.57-1.52s.8-.46,1.26-.46h2.68c.55,0,1.03.05,1.44.15s.77.26,1.08.48c.31.22.57.5.77.84.21.34.39.74.54,1.19l9.4,23.79h.13l9.78-23.71c.19-.51.39-.94.62-1.29.22-.36.47-.64.73-.85.27-.21.56-.36.89-.46.33-.09.71-.14,1.13-.14h2.81c.26,0,.5.04.73.11s.43.2.59.36c.16.16.3.36.4.61.1.25.15.55.15.9v30.21Z"/>
  </g>
  <g>
    <path class="cls-1" d="m6.48,44.59c0,.07,0,.13,0,.18s-.01.09-.02.13c-.01.04-.02.07-.04.1-.02.03-.05.06-.09.11-.04.04-.13.11-.26.19-.13.09-.3.17-.5.25-.2.08-.43.15-.69.21-.26.06-.54.09-.84.09-.53,0-1-.09-1.43-.26-.42-.18-.79-.44-1.09-.78-.3-.34-.53-.77-.69-1.27-.16-.51-.24-1.09-.24-1.74s.09-1.28.26-1.8c.17-.53.42-.97.73-1.34.31-.37.69-.65,1.13-.84.44-.19.92-.29,1.45-.29.23,0,.46.02.68.07.22.04.43.1.62.17.19.07.36.15.5.23s.25.16.31.22c.06.06.09.1.11.13.02.03.03.06.04.1.01.04.02.09.03.14,0,.05,0,.12,0,.19,0,.08,0,.16-.01.21,0,.06-.02.11-.04.15s-.04.07-.06.09c-.02.02-.05.03-.09.03-.06,0-.14-.04-.25-.12-.11-.08-.24-.17-.41-.27s-.37-.19-.61-.27c-.24-.08-.52-.12-.86-.12-.36,0-.69.07-.99.22-.3.15-.55.36-.76.64-.21.28-.37.62-.49,1.03-.12.4-.17.87-.17,1.39s.06.97.17,1.37c.11.4.27.73.48.99.21.27.46.47.77.6.3.14.65.2,1.03.2.32,0,.61-.04.85-.12.24-.08.45-.17.62-.27s.31-.19.42-.27c.11-.08.2-.12.26-.12.03,0,.06,0,.08.02s.04.04.05.07c.01.03.02.08.03.15s0,.14,0,.24Z"/>
    <path class="cls-1" d="m13.82,45.58s0,.06-.03.09-.05.04-.09.06c-.04.02-.1.03-.17.04-.07,0-.16.01-.26.01s-.19,0-.26-.01c-.07,0-.13-.02-.17-.04-.04-.02-.07-.04-.09-.06-.02-.02-.03-.05-.03-.09v-7.04h-3.68v7.04s0,.06-.03.09c-.02.02-.05.04-.09.06-.04.02-.09.03-.16.04-.07,0-.16.01-.26.01s-.19,0-.26-.01c-.07,0-.12-.02-.17-.04-.04-.02-.07-.04-.09-.06s-.03-.05-.03-.09v-7.53c0-.15.04-.26.11-.33.07-.07.17-.11.28-.11h5.07c.12,0,.21.04.28.11.07.07.1.18.1.33v7.53Z"/>
    <path class="cls-1" d="m20.57,45.29c0,.08,0,.14-.01.2,0,.06-.02.1-.04.14s-.04.06-.07.08c-.03.02-.06.03-.09.03h-3.9c-.1,0-.19-.03-.27-.1-.09-.06-.13-.18-.13-.34v-7.25c0-.16.04-.28.13-.34.09-.07.18-.1.27-.1h3.86s.06,0,.09.03c.03.02.05.04.07.08s.03.09.04.14c.01.06.02.13.02.21,0,.08,0,.14-.02.2-.01.06-.02.1-.04.14s-.04.06-.07.08c-.03.02-.06.03-.09.03h-3.18v2.55h2.73s.06,0,.09.03c.03.02.05.04.07.08.02.03.03.08.04.14,0,.06.01.13.01.21s0,.14-.01.2c0,.05-.02.1-.04.13-.02.03-.04.06-.07.07-.03.01-.06.02-.09.02h-2.73v2.91h3.22s.06,0,.09.03c.03.02.05.04.07.08.02.03.04.08.04.14,0,.06.01.13.01.21Z"/>
    <path class="cls-1" d="m29.25,47.72s0,.06-.02.08c-.01.02-.04.04-.07.05s-.08.02-.14.03c-.06,0-.14.01-.24.01-.08,0-.16,0-.21-.01-.06,0-.11-.02-.14-.03s-.06-.03-.08-.05c-.01-.02-.02-.05-.02-.08v-1.98h-5.55c-.12,0-.21-.04-.28-.11-.07-.07-.1-.18-.1-.33v-7.53s0-.06.03-.08.05-.05.09-.06c.04-.02.1-.03.17-.04.07,0,.16-.01.26-.01s.19,0,.26.01c.07,0,.12.02.17.04.04.02.07.04.09.06s.03.05.03.08v7.04h3.64v-7.04s0-.06.03-.08.05-.05.09-.06c.04-.02.1-.03.17-.04.07,0,.16-.01.26-.01s.19,0,.25.01c.07,0,.12.02.17.04.04.02.07.04.09.06s.03.05.03.08v7.04h.82c.08,0,.14.02.18.07.04.05.05.13.05.23v2.6Z"/>
    <path class="cls-1" d="m31.75,45.57s0,.06-.03.09-.05.04-.09.06c-.04.01-.1.03-.17.04-.07,0-.16.02-.26.02s-.19,0-.26-.02c-.07-.01-.13-.02-.17-.04-.04-.02-.07-.03-.09-.06s-.03-.06-.03-.09v-7.8s0-.06.03-.09c.02-.03.05-.05.09-.06.04-.01.1-.03.17-.04.07-.01.15-.02.25-.02.1,0,.19,0,.26.02.07.01.12.02.17.04s.07.03.09.06.03.05.03.09v7.8Z"/>
    <path class="cls-1" d="m40.07,45.35c.03.09.05.17.05.22,0,.06-.01.1-.05.13-.03.03-.09.05-.17.06-.08,0-.18.01-.31.01s-.23,0-.31,0c-.08,0-.14-.02-.18-.03-.04-.02-.07-.03-.09-.06-.02-.03-.04-.06-.05-.09l-.7-1.98h-3.38l-.67,1.95s-.03.07-.05.1-.05.05-.09.07c-.04.02-.1.03-.17.04-.07,0-.17.01-.29.01s-.22,0-.3-.02c-.08-.01-.13-.03-.16-.06-.03-.03-.05-.07-.04-.13,0-.06.02-.13.05-.22l2.73-7.55s.04-.08.07-.11c.03-.03.07-.05.12-.07.05-.02.12-.03.2-.03.08,0,.19,0,.31,0,.13,0,.25,0,.33,0,.09,0,.16.02.21.03.05.02.1.04.13.07.03.03.05.07.07.12l2.73,7.55Zm-3.5-6.67h0l-1.4,4.05h2.83l-1.42-4.05Z"/>
    <path class="cls-1" d="m47.19,45.58s0,.06-.03.09-.05.04-.09.06c-.04.02-.1.03-.17.04-.07,0-.16.01-.26.01s-.19,0-.26-.01c-.07,0-.12-.02-.17-.04-.04-.02-.07-.04-.09-.06s-.03-.05-.03-.09v-7.04h-2.29c-.11.97-.23,1.82-.34,2.56-.11.74-.23,1.38-.36,1.92s-.26.99-.41,1.35c-.15.36-.32.65-.52.87-.2.22-.41.38-.66.47-.24.09-.52.14-.84.14-.04,0-.08,0-.11-.03-.03-.02-.06-.04-.08-.08-.02-.04-.04-.09-.05-.14-.01-.06-.02-.13-.02-.21,0-.11,0-.19.02-.26.01-.07.02-.12.04-.16.02-.04.04-.07.07-.09.03-.02.06-.03.09-.03.16,0,.3-.03.44-.09.14-.06.27-.18.39-.35.13-.17.25-.42.36-.73.12-.31.23-.72.34-1.22.11-.5.22-1.11.32-1.82.1-.71.21-1.56.31-2.53.02-.18.06-.3.13-.37.06-.07.16-.11.28-.11h3.61c.12,0,.21.04.28.11.07.07.1.18.1.33v7.53Z"/>
    <path class="cls-1" d="m54.84,43.2c0,.33-.05.64-.15.94-.1.3-.27.56-.5.8-.23.24-.54.43-.93.57-.39.15-.93.22-1.62.22h-1.8c-.05,0-.1,0-.15-.02s-.09-.04-.13-.08-.07-.08-.1-.14c-.03-.06-.04-.12-.04-.2v-7.53s0-.06.03-.08c.02-.03.05-.05.09-.06.04-.02.1-.03.17-.04.07,0,.15-.01.25-.01.1,0,.19,0,.26.01.07,0,.12.02.17.04.04.02.07.04.09.06s.03.05.03.08v3.05h1.23c.6,0,1.07.05,1.42.15.35.1.66.25.9.45.25.2.44.45.58.75s.21.65.21,1.04Zm-1.12.1c0-.26-.04-.48-.11-.68-.07-.19-.19-.36-.34-.5-.15-.14-.35-.24-.58-.31-.23-.07-.59-.11-1.06-.11h-1.13v3.14h1.21c.5,0,.87-.05,1.11-.15s.43-.23.56-.38c.13-.15.22-.32.27-.5.05-.18.08-.35.08-.51Z"/>
    <path class="cls-1" d="m62.17,45.57s0,.06-.03.09-.05.04-.09.06c-.04.01-.1.03-.17.04-.07,0-.15.02-.25.02-.11,0-.2,0-.26-.02-.07-.01-.12-.02-.16-.04-.04-.02-.07-.03-.09-.06s-.03-.06-.03-.09v-3.61h-3.7v3.61s0,.06-.03.09-.05.04-.09.06c-.04.01-.1.03-.17.04-.07,0-.16.02-.26.02s-.19,0-.26-.02c-.07-.01-.13-.02-.17-.04-.04-.02-.07-.03-.09-.06s-.03-.06-.03-.09v-7.8s0-.06.03-.09.05-.05.09-.06.1-.03.17-.04.16-.02.26-.02.19,0,.26.02c.07.01.12.02.17.04s.07.03.09.06.03.05.03.09v3.26h3.7v-3.26s0-.06.03-.09.05-.05.09-.06.1-.03.16-.04.16-.02.26-.02c.1,0,.19,0,.25.02.07.01.12.02.17.04s.07.03.09.06.03.05.03.09v7.8Z"/>
    <path class="cls-1" d="m65.48,45.57s0,.06-.03.09-.05.04-.09.06c-.04.01-.1.03-.17.04-.07,0-.16.02-.26.02s-.19,0-.26-.02c-.07-.01-.13-.02-.17-.04-.04-.02-.07-.03-.09-.06s-.03-.06-.03-.09v-7.8s0-.06.03-.09c.02-.03.05-.05.09-.06.04-.01.1-.03.17-.04.07-.01.15-.02.25-.02.1,0,.19,0,.26.02.07.01.12.02.17.04s.07.03.09.06.03.05.03.09v7.8Z"/>
    <path class="cls-1" d="m75.13,43.46c0,.36-.07.69-.2.98-.13.29-.33.55-.58.76-.26.21-.58.37-.95.49s-.81.17-1.3.17c-.27,0-.52-.02-.74-.06-.22-.04-.41-.09-.57-.15-.16-.06-.28-.11-.37-.16-.09-.05-.15-.09-.19-.12-.04-.03-.06-.06-.08-.09-.02-.03-.03-.07-.04-.12,0-.05-.02-.11-.03-.18,0-.07-.01-.15-.01-.26,0-.13.01-.22.04-.26.03-.05.06-.07.11-.07s.12.03.21.08c.09.06.21.12.36.19.15.07.33.14.54.19.21.05.46.08.76.08.28,0,.53-.03.76-.1.23-.07.42-.17.58-.29.16-.13.29-.28.38-.45.09-.18.14-.37.14-.58,0-.23-.04-.44-.13-.63s-.21-.35-.37-.48c-.17-.13-.37-.24-.62-.31s-.53-.11-.85-.11h-.96c-.05,0-.09,0-.12-.02s-.05-.04-.08-.07c-.02-.03-.04-.08-.04-.13,0-.06-.01-.13-.01-.21s0-.15.01-.2c0-.06.02-.1.04-.14s.05-.06.08-.08c.03-.02.07-.03.11-.03h.9c.28,0,.53-.03.76-.09.23-.06.42-.15.58-.28.16-.12.29-.27.37-.45.09-.18.13-.38.13-.61,0-.18-.03-.35-.09-.51-.06-.15-.15-.29-.28-.39-.12-.11-.28-.19-.46-.25-.18-.06-.4-.09-.64-.09-.27,0-.51.03-.72.09-.21.06-.39.12-.54.19-.15.07-.28.13-.38.19-.1.06-.18.09-.23.09-.03,0-.05,0-.07-.02s-.03-.03-.04-.07c-.01-.03-.02-.07-.03-.13,0-.05,0-.12,0-.2,0-.05,0-.11,0-.16,0-.05.01-.1.02-.14.01-.04.02-.08.04-.12s.04-.07.08-.1c.03-.03.11-.08.24-.15s.28-.13.47-.18c.18-.06.39-.11.63-.15.23-.04.48-.06.75-.06.4,0,.75.05,1.05.15.3.1.55.23.75.41.2.18.35.39.45.64.1.25.15.52.15.82,0,.28-.04.52-.12.75-.08.22-.19.41-.33.57-.14.16-.31.29-.49.4-.19.1-.39.17-.6.21v.02c.25.03.49.1.7.21s.41.26.57.44c.16.18.28.38.38.62.09.23.14.48.14.75Z"/>
    <path class="cls-1" d="m82.85,45.35c.03.09.05.17.05.22,0,.06-.01.1-.05.13-.03.03-.09.05-.17.06-.08,0-.18.01-.31.01s-.23,0-.31,0c-.08,0-.14-.02-.18-.03-.04-.02-.07-.03-.09-.06-.02-.03-.04-.06-.05-.09l-.7-1.98h-3.38l-.67,1.95s-.03.07-.05.1-.05.05-.09.07c-.04.02-.1.03-.17.04-.07,0-.17.01-.29.01s-.22,0-.3-.02c-.08-.01-.13-.03-.16-.06-.03-.03-.05-.07-.04-.13,0-.06.02-.13.05-.22l2.73-7.55s.04-.08.07-.11c.03-.03.07-.05.12-.07.05-.02.12-.03.2-.03.08,0,.19,0,.31,0,.13,0,.25,0,.33,0,.09,0,.16.02.21.03.05.02.1.04.13.07.03.03.05.07.07.12l2.73,7.55Zm-3.5-6.67h0l-1.4,4.05h2.83l-1.42-4.05Z"/>
    <path class="cls-1" d="m89.35,44.59c0,.07,0,.13,0,.18s-.01.09-.02.13c-.01.04-.03.07-.04.1-.02.03-.04.06-.09.11-.04.04-.13.11-.26.19-.13.09-.3.17-.5.25-.2.08-.43.15-.68.21-.26.06-.54.09-.85.09-.53,0-1-.09-1.43-.26-.42-.18-.79-.44-1.09-.78-.3-.34-.53-.77-.69-1.27-.16-.51-.24-1.09-.24-1.74s.09-1.28.26-1.8c.17-.53.42-.97.73-1.34.31-.37.69-.65,1.13-.84.44-.19.92-.29,1.45-.29.23,0,.46.02.68.07.22.04.43.1.61.17.19.07.36.15.5.23.15.09.25.16.31.22.06.06.09.1.11.13.02.03.03.06.04.1.01.04.02.09.03.14,0,.05,0,.12,0,.19,0,.08,0,.16-.01.21,0,.06-.02.11-.04.15s-.04.07-.06.09c-.02.02-.05.03-.09.03-.06,0-.14-.04-.25-.12-.1-.08-.24-.17-.41-.27-.17-.1-.37-.19-.61-.27-.24-.08-.52-.12-.86-.12-.36,0-.69.07-.99.22-.3.15-.55.36-.76.64-.21.28-.37.62-.49,1.03-.12.4-.17.87-.17,1.39s.06.97.17,1.37c.11.4.27.73.48.99.21.27.46.47.77.6.3.14.65.2,1.03.2.32,0,.61-.04.85-.12.24-.08.45-.17.62-.27s.31-.19.42-.27c.11-.08.2-.12.26-.12.03,0,.06,0,.08.02.02.01.04.04.05.07.01.03.02.08.03.15,0,.06,0,.14,0,.24Z"/>
    <path class="cls-1" d="m97.66,41.58c0,.66-.08,1.25-.23,1.78-.16.53-.39.98-.7,1.35-.31.37-.69.66-1.16.85-.47.2-1.01.3-1.63.3s-1.14-.09-1.59-.27c-.45-.18-.81-.45-1.11-.8-.29-.35-.51-.78-.65-1.29-.14-.52-.21-1.11-.21-1.78s.08-1.22.23-1.75c.15-.52.39-.97.7-1.34.31-.37.7-.65,1.16-.85s1.01-.3,1.63-.3,1.12.09,1.56.27c.44.18.81.44,1.11.79.3.35.52.77.66,1.28.14.51.22,1.09.22,1.75Zm-1.14.08c0-.46-.04-.89-.12-1.28-.08-.4-.22-.74-.41-1.03-.19-.29-.44-.52-.76-.68-.32-.16-.71-.24-1.18-.24s-.86.09-1.18.26-.58.41-.78.7c-.2.29-.34.64-.43,1.03-.09.39-.13.8-.13,1.23,0,.48.04.92.12,1.32s.21.75.4,1.04c.19.29.44.52.76.68.32.16.71.24,1.19.24s.87-.09,1.19-.26.58-.41.78-.71c.2-.3.34-.65.42-1.04.08-.39.13-.81.13-1.25Z"/>
    <path class="cls-1" d="m104.79,43.32c0,.31-.05.62-.15.91-.1.29-.26.55-.48.77-.22.22-.51.4-.88.54-.36.14-.86.2-1.49.2h-1.96c-.1,0-.19-.03-.28-.1-.08-.06-.13-.18-.13-.35v-7.24c0-.16.04-.28.13-.34.08-.07.17-.1.27-.1h4.22s.07,0,.1.03c.03.02.05.04.07.08.02.04.03.09.04.14,0,.06.01.13.01.21,0,.08,0,.14-.01.2,0,.06-.02.11-.04.14-.02.03-.04.06-.07.08-.03.02-.06.03-.1.03h-3.54v2.55h1.49c.51,0,.93.05,1.26.16.33.11.61.26.84.45.23.2.4.44.51.71.12.28.18.59.18.93Zm-1.12.08c0-.23-.04-.43-.11-.61-.07-.18-.18-.33-.32-.46-.14-.13-.32-.22-.53-.29-.21-.07-.5-.1-.85-.1h-1.36v2.93h1.39c.34,0,.61-.03.82-.1.21-.07.39-.16.52-.29.14-.13.24-.28.31-.46.07-.18.11-.38.11-.61Z"/>
    <path class="cls-1" d="m112.51,45.58s0,.06-.03.09-.05.04-.09.06c-.04.02-.1.03-.17.04-.07,0-.16.01-.26.01s-.19,0-.26-.01c-.07,0-.13-.02-.17-.04-.04-.02-.07-.04-.08-.06-.02-.02-.03-.05-.03-.09v-5.33c0-.13,0-.26,0-.41,0-.14.01-.27.02-.38h-.01c-.03.06-.07.12-.11.19-.04.07-.08.14-.13.21l-.14.22c-.05.07-.09.15-.14.22l-3.52,5.29s-.05.06-.08.09-.06.04-.1.06c-.04.01-.09.03-.14.03-.05,0-.12,0-.21,0-.1,0-.17,0-.24-.01-.06,0-.11-.02-.14-.04-.04-.02-.06-.04-.08-.07s-.02-.06-.02-.09v-7.8s0-.06.03-.08c.02-.03.05-.05.09-.06.04-.02.1-.03.17-.04.07,0,.15-.01.25-.01.1,0,.19,0,.26.01.07,0,.12.02.17.04.04.02.07.04.09.06s.03.05.03.08v5.37c0,.11,0,.23,0,.36,0,.13,0,.26-.02.38h.01c.07-.1.15-.23.24-.38s.18-.3.29-.44l3.51-5.3s.04-.06.07-.08.06-.04.1-.06c.04-.02.09-.03.14-.03.06,0,.12-.01.21-.01.1,0,.17,0,.24.01.06,0,.11.02.14.04.04.02.06.04.08.06s.02.05.02.09v7.8Z"/>
    <path class="cls-1" d="m7.98,58.61s0,.06-.02.08-.04.04-.07.05c-.04.01-.08.02-.14.03-.06,0-.14.01-.24.01-.08,0-.16,0-.21-.01-.06,0-.11-.02-.14-.03-.04-.01-.06-.03-.08-.05-.01-.02-.02-.05-.02-.08v-1.98H.93v1.98s0,.06-.02.08c-.01.02-.04.04-.08.05-.04.01-.08.02-.14.03-.06,0-.13.01-.22.01-.1,0-.17,0-.23-.01-.06,0-.11-.02-.14-.03-.04-.01-.06-.03-.08-.05-.01-.02-.02-.05-.02-.08v-2.58c0-.11,0-.19.05-.24s.11-.08.19-.08h.47c.12-.15.23-.3.33-.46.1-.16.2-.34.29-.56s.18-.47.27-.78.17-.68.26-1.13c.09-.45.17-.99.26-1.61.09-.62.18-1.37.28-2.23.03-.15.07-.26.13-.34.06-.07.15-.11.26-.11h3.75c.11,0,.2.04.27.11.07.07.1.18.1.33v6.77h.81c.09,0,.15.03.19.08s.06.13.06.24v2.58Zm-2.14-9.19h-2.41c-.09.78-.17,1.45-.26,2.03-.09.58-.17,1.08-.25,1.51-.08.43-.16.79-.25,1.08-.08.3-.17.55-.25.75-.09.21-.17.38-.26.52-.09.14-.18.27-.28.39h3.97v-6.29Z"/>
    <path class="cls-1" d="m15.1,56.47s0,.06-.03.08-.05.04-.09.06-.1.03-.17.04c-.07,0-.16.01-.26.01s-.19,0-.26-.01c-.07,0-.12-.02-.17-.04s-.07-.04-.09-.06-.03-.05-.03-.08v-7.04h-2.29c-.11.97-.23,1.82-.34,2.56-.11.74-.23,1.38-.36,1.92s-.26.99-.41,1.35-.32.65-.52.87c-.2.22-.41.38-.66.47-.24.09-.52.14-.84.14-.04,0-.08,0-.11-.03s-.06-.04-.08-.08c-.02-.04-.04-.09-.05-.15-.01-.06-.02-.13-.02-.21,0-.1,0-.19.02-.26.01-.07.02-.12.04-.16.02-.04.04-.07.07-.09.03-.02.06-.03.09-.03.16,0,.3-.03.44-.09.14-.06.27-.18.39-.35s.25-.42.36-.73c.12-.31.23-.72.34-1.22s.22-1.11.32-1.82.21-1.56.31-2.53c.02-.18.06-.3.13-.37.06-.07.16-.11.28-.11h3.61c.12,0,.21.04.28.11.07.07.1.18.1.33v7.53Z"/>
    <path class="cls-1" d="m22.31,56.47s0,.06-.03.08-.05.04-.09.06-.1.03-.17.04c-.07,0-.16.01-.26.01s-.19,0-.26-.01c-.07,0-.12-.02-.16-.04-.04-.02-.07-.04-.09-.06-.02-.02-.03-.05-.03-.08v-3.39h-.81c-.33,0-.58.03-.75.1-.17.07-.32.16-.45.29-.13.13-.24.28-.33.46s-.18.38-.26.6l-.7,1.87c-.02.05-.04.09-.07.13-.02.03-.06.06-.1.08-.05.02-.1.03-.17.04-.07,0-.16.01-.27.01-.12,0-.22,0-.29-.02s-.13-.02-.17-.04c-.04-.02-.07-.04-.08-.06s-.02-.05-.02-.09c0-.04,0-.09.02-.15.01-.06.04-.15.09-.27l.67-1.73c.08-.21.16-.4.25-.57s.18-.32.28-.44.21-.24.33-.33.25-.16.39-.22c-.25-.06-.48-.15-.68-.26s-.37-.25-.51-.41-.24-.36-.32-.57c-.07-.21-.11-.45-.11-.71,0-.34.06-.64.17-.93.11-.28.28-.53.52-.73.23-.21.52-.37.87-.48.35-.12.85-.17,1.49-.17h1.68c.1,0,.19.03.28.1.08.06.13.18.13.34v7.53Zm-1.08-7.08h-1.03c-.43,0-.75.03-.97.1-.22.07-.39.17-.53.29-.14.12-.23.27-.29.44-.06.17-.09.35-.09.55s.03.38.1.55c.07.17.17.32.31.45s.32.23.54.3c.22.07.52.11.91.11h1.06v-2.8Z"/>
    <path class="cls-1" d="m32.87,54.29c0,.26-.03.49-.1.71-.07.22-.16.41-.27.58s-.26.32-.42.45c-.17.13-.35.24-.56.33-.21.09-.43.15-.67.2-.24.04-.51.07-.81.07h-2.12c-.1,0-.19-.03-.27-.1-.09-.06-.13-.18-.13-.34v-7.25c0-.16.04-.28.13-.34.09-.07.18-.1.27-.1h1.85c.49,0,.88.05,1.19.14.31.09.57.23.78.4.21.18.36.39.47.65.1.26.16.55.16.87,0,.19-.02.38-.07.55s-.11.34-.2.49c-.09.15-.2.28-.34.4-.14.12-.29.21-.47.29.22.04.43.12.62.23s.36.25.51.42c.15.17.26.37.34.6s.13.48.13.76Zm-1.63-3.64c0-.2-.03-.38-.08-.53-.05-.16-.14-.29-.26-.41s-.27-.2-.46-.25c-.19-.06-.44-.09-.75-.09h-1.12v2.63h1.23c.28,0,.51-.04.68-.11.17-.07.31-.17.43-.3.11-.12.2-.27.25-.43s.08-.34.08-.51Zm.49,3.7c0-.24-.04-.46-.12-.64-.08-.18-.19-.34-.34-.46s-.33-.22-.56-.29c-.22-.06-.51-.1-.84-.1h-1.29v2.87h1.57c.25,0,.46-.03.65-.09.18-.06.35-.15.49-.26s.25-.26.33-.43c.08-.17.12-.37.12-.6Z"/>
    <path class="cls-1" d="m37.73,54.36c-.2.49-.38.88-.55,1.19-.17.31-.34.55-.51.72-.18.17-.37.29-.57.35-.21.06-.44.09-.71.09-.09,0-.19,0-.28-.02s-.18-.03-.27-.05-.16-.05-.22-.08c-.06-.03-.11-.06-.14-.08-.03-.02-.05-.05-.07-.08-.01-.03-.03-.06-.04-.1-.01-.04-.02-.09-.02-.16,0-.06,0-.14,0-.23,0-.16.02-.27.05-.35s.08-.11.14-.11c.03,0,.07.01.12.04s.1.05.16.09c.06.03.14.06.23.09s.2.04.32.04c.1,0,.2-.01.29-.03.09-.02.18-.07.26-.15.08-.08.17-.18.25-.32.09-.14.18-.32.29-.56l-2.9-5.81c-.04-.08-.06-.15-.07-.21,0-.06,0-.1.04-.13.04-.03.09-.05.17-.06.08-.01.18-.02.31-.02.12,0,.22,0,.29.01.07,0,.13.02.18.04.05.02.08.04.11.08.03.03.05.07.07.12l1.45,2.97c.16.33.32.65.46.96.14.31.29.61.42.92h.02c.11-.32.23-.64.35-.95s.25-.66.41-1.04l1.14-2.9s.03-.07.05-.09.06-.05.1-.06c.04-.02.1-.03.18-.03.08,0,.18,0,.3,0s.23,0,.3.02.13.03.16.06c.03.03.05.06.05.1s-.01.09-.04.15l-2.3,5.58Z"/>
    <path class="cls-1" d="m45.76,54.35c0,.36-.07.69-.2.98-.13.29-.33.55-.58.76-.26.21-.58.37-.95.49s-.81.17-1.3.17c-.27,0-.52-.02-.74-.06-.22-.04-.41-.09-.57-.15-.16-.06-.28-.11-.37-.16-.09-.05-.15-.09-.19-.12-.04-.03-.06-.06-.08-.09-.02-.03-.03-.07-.04-.12s-.02-.11-.03-.18c0-.07-.01-.15-.01-.26,0-.13.01-.22.04-.26.03-.05.06-.07.11-.07s.12.03.21.08c.09.06.21.12.36.19s.33.14.54.19c.21.05.46.08.76.08.28,0,.53-.03.76-.1.23-.07.42-.17.58-.29.16-.13.29-.28.38-.45.09-.18.14-.37.14-.58,0-.23-.04-.44-.13-.63-.08-.19-.21-.35-.37-.48-.17-.13-.37-.24-.62-.31s-.53-.11-.85-.11h-.96c-.05,0-.09,0-.12-.02s-.05-.04-.08-.07c-.02-.03-.04-.08-.04-.14,0-.06-.01-.13-.01-.21,0-.08,0-.15.01-.2s.02-.1.04-.14.05-.06.08-.08c.03-.02.07-.03.11-.03h.9c.28,0,.53-.03.76-.09.23-.06.42-.16.58-.28.16-.12.29-.27.37-.45s.13-.38.13-.61c0-.18-.03-.35-.09-.51-.06-.15-.15-.29-.28-.39-.12-.11-.28-.19-.46-.25-.18-.06-.4-.09-.64-.09-.27,0-.51.03-.72.09-.21.06-.39.12-.54.19-.15.07-.28.13-.38.19-.1.06-.18.09-.23.09-.03,0-.05,0-.07-.02s-.03-.03-.04-.07c-.01-.03-.02-.07-.03-.13,0-.05,0-.12,0-.2,0-.05,0-.11,0-.16,0-.05.01-.1.02-.14.01-.04.02-.08.04-.12s.04-.07.08-.1c.03-.03.11-.08.24-.15s.28-.13.47-.18c.18-.06.39-.11.63-.15.23-.04.48-.06.75-.06.4,0,.75.05,1.05.15.3.1.55.23.75.41.2.18.35.39.45.64.1.25.15.52.15.82,0,.28-.04.52-.12.75-.08.22-.19.41-.33.57-.14.16-.31.29-.49.4s-.39.17-.6.21v.02c.25.03.49.1.7.21s.41.26.57.44.28.38.38.62c.09.23.14.48.14.75Z"/>
    <path class="cls-1" d="m52.89,54.09c0,.33-.05.64-.15.94-.1.3-.27.56-.5.8-.23.24-.54.43-.93.57-.39.15-.93.22-1.62.22h-1.8c-.05,0-.1,0-.15-.02s-.09-.04-.13-.08-.07-.08-.1-.14c-.03-.06-.04-.12-.04-.2v-7.53s0-.06.03-.08c.02-.03.05-.05.09-.06.04-.02.1-.03.17-.04.07,0,.15-.01.25-.01.1,0,.19,0,.26.01.07,0,.12.02.17.04.04.02.07.04.09.06s.03.05.03.08v3.05h1.23c.6,0,1.07.05,1.42.15.35.1.66.25.9.45.25.2.44.45.58.75s.21.65.21,1.04Zm-1.12.1c0-.26-.04-.48-.11-.68-.07-.19-.19-.36-.34-.5-.15-.14-.35-.24-.58-.31s-.59-.11-1.06-.11h-1.13v3.14h1.21c.5,0,.87-.05,1.11-.15s.43-.23.56-.38c.13-.15.22-.32.27-.5.05-.18.08-.35.08-.51Z"/>
    <path class="cls-1" d="m59.78,56.46s0,.07-.03.09-.04.05-.08.06c-.04.02-.1.03-.17.04s-.16.01-.26.01c-.12,0-.22,0-.29-.02-.07-.01-.13-.03-.18-.05-.04-.02-.08-.05-.1-.08-.02-.03-.04-.07-.05-.12l-.75-1.99c-.1-.27-.21-.5-.33-.68s-.26-.34-.42-.47c-.16-.12-.34-.21-.54-.27s-.43-.09-.68-.09h-.45v3.56s0,.06-.03.09-.05.05-.09.06-.1.03-.17.04c-.07.01-.16.02-.26.02s-.19,0-.26-.02-.13-.02-.17-.04-.07-.03-.09-.06-.03-.05-.03-.09v-7.81s0-.06.03-.08.05-.05.09-.06.1-.03.17-.04.16-.02.26-.02.19,0,.26.02c.07.01.12.02.17.04s.07.03.09.06.03.05.03.08v3.32h.45c.25,0,.47-.03.66-.09s.36-.15.5-.27c.15-.12.27-.28.38-.46.11-.19.21-.41.3-.66l.62-1.77s.03-.08.05-.11c.02-.03.05-.06.09-.08.04-.02.1-.04.17-.05.07-.01.17-.02.29-.02.11,0,.2,0,.26.01.07,0,.12.02.16.04.04.02.07.04.08.06s.02.05.02.09c0,.05,0,.1-.02.15-.01.06-.03.12-.06.2l-.65,1.69c-.09.26-.19.48-.29.66-.1.18-.21.34-.32.47-.12.13-.25.24-.38.33s-.29.15-.47.2h0c.2.08.37.17.52.26.15.09.29.21.42.35.13.14.25.3.36.5.11.2.22.43.32.7l.77,1.94c.04.11.07.19.08.23,0,.04.01.08.01.12Z"/>
    <path class="cls-1" d="m67.52,56.47s0,.06-.03.08-.05.04-.09.06-.1.03-.17.04c-.07,0-.16.01-.26.01s-.19,0-.26-.01-.13-.02-.17-.04c-.04-.02-.07-.04-.08-.06s-.03-.05-.03-.08v-5.34c0-.13,0-.26,0-.41s.01-.27.02-.38h-.01c-.03.06-.07.12-.11.19-.04.07-.08.14-.13.21s-.09.15-.14.22-.09.15-.14.22l-3.52,5.29s-.05.06-.08.09-.06.05-.1.06c-.04.01-.09.03-.14.03-.05,0-.12,0-.21,0-.1,0-.17,0-.24-.01-.06,0-.11-.02-.14-.04-.04-.02-.06-.04-.08-.07-.01-.03-.02-.06-.02-.09v-7.8s0-.06.03-.08c.02-.03.05-.05.09-.06.04-.02.1-.03.17-.04.07,0,.15-.01.25-.01.1,0,.19,0,.26.01.07,0,.12.02.17.04.04.02.07.04.09.06s.03.05.03.08v5.37c0,.11,0,.23,0,.37,0,.13,0,.26-.02.38h.01c.07-.11.15-.23.24-.38.09-.15.19-.3.29-.44l3.51-5.3s.04-.06.07-.08.06-.04.1-.06c.04-.02.09-.03.14-.03.05,0,.12-.01.21-.01.1,0,.17,0,.24.01.06,0,.11.02.14.04.04.02.06.04.08.06.01.02.02.05.02.09v7.81Z"/>
    <path class="cls-1" d="m74.92,56.24c.05.09.09.17.1.22.01.06,0,.1-.04.13-.04.03-.1.05-.19.06-.09.01-.2.02-.34.02-.13,0-.24,0-.31,0-.08,0-.13-.02-.18-.03-.04-.02-.08-.04-.1-.06-.02-.02-.04-.05-.06-.09l-1.81-3.24-1.83,3.24s-.04.07-.07.09-.06.05-.1.06c-.04.01-.1.03-.18.03-.08,0-.18,0-.3,0-.14,0-.25,0-.33-.02s-.14-.03-.17-.06-.04-.07-.03-.13c.01-.05.04-.13.1-.22l2.22-3.74-2.12-3.61c-.05-.09-.08-.17-.1-.22-.01-.06,0-.1.03-.13.03-.03.09-.05.18-.06.08,0,.2-.01.35-.01.13,0,.23,0,.31,0,.08,0,.14.02.19.03s.08.04.1.06.04.06.07.09l1.75,3.04,1.73-3.04s.04-.06.06-.09.05-.05.09-.06c.04-.01.1-.03.17-.03.07,0,.17,0,.29,0,.13,0,.24,0,.32.02.08.01.14.03.18.06.04.03.05.07.04.13,0,.06-.04.13-.09.22l-2.11,3.59,2.2,3.76Z"/>
    <path class="cls-1" d="m83.91,54.35c0,.36-.07.69-.2.98-.13.29-.33.55-.58.76-.26.21-.58.37-.95.49s-.81.17-1.3.17c-.27,0-.52-.02-.74-.06-.22-.04-.41-.09-.57-.15-.16-.06-.28-.11-.37-.16-.09-.05-.15-.09-.19-.12-.04-.03-.06-.06-.08-.09-.02-.03-.03-.07-.04-.12s-.02-.11-.03-.18c0-.07-.01-.15-.01-.26,0-.13.01-.22.04-.26.03-.05.06-.07.11-.07s.12.03.21.08c.09.06.21.12.36.19s.33.14.54.19c.21.05.46.08.76.08.28,0,.53-.03.76-.1.23-.07.42-.17.58-.29.16-.13.29-.28.38-.45.09-.18.14-.37.14-.58,0-.23-.04-.44-.13-.63-.08-.19-.21-.35-.37-.48-.17-.13-.37-.24-.62-.31s-.53-.11-.85-.11h-.96c-.05,0-.09,0-.12-.02s-.05-.04-.08-.07c-.02-.03-.04-.08-.04-.14,0-.06-.01-.13-.01-.21,0-.08,0-.15.01-.2s.02-.1.04-.14.05-.06.08-.08c.03-.02.07-.03.11-.03h.9c.28,0,.53-.03.76-.09.23-.06.42-.16.58-.28.16-.12.29-.27.37-.45s.13-.38.13-.61c0-.18-.03-.35-.09-.51-.06-.15-.15-.29-.28-.39-.12-.11-.28-.19-.46-.25-.18-.06-.4-.09-.64-.09-.27,0-.51.03-.72.09-.21.06-.39.12-.54.19-.15.07-.28.13-.38.19-.1.06-.18.09-.23.09-.03,0-.05,0-.07-.02s-.03-.03-.04-.07c-.01-.03-.02-.07-.03-.13,0-.05,0-.12,0-.2,0-.05,0-.11,0-.16,0-.05.01-.1.02-.14.01-.04.02-.08.04-.12s.04-.07.08-.1c.03-.03.11-.08.24-.15s.28-.13.47-.18c.18-.06.39-.11.63-.15.23-.04.48-.06.75-.06.4,0,.75.05,1.05.15.3.1.55.23.75.41.2.18.35.39.45.64.1.25.15.52.15.82,0,.28-.04.52-.12.75-.08.22-.19.41-.33.57-.14.16-.31.29-.49.4s-.39.17-.6.21v.02c.25.03.49.1.7.21s.41.26.57.44.28.38.38.62c.09.23.14.48.14.75Z"/>
    <path class="cls-1" d="m91.63,56.24c.03.09.05.17.05.22,0,.06-.01.1-.05.13-.03.03-.09.05-.17.06s-.18.01-.31.01-.23,0-.31,0c-.08,0-.14-.02-.18-.03-.04-.01-.07-.03-.09-.06s-.04-.06-.05-.09l-.7-1.98h-3.38l-.67,1.95s-.03.07-.05.1-.05.05-.09.07c-.04.02-.1.03-.17.04-.07,0-.17.01-.29.01s-.22,0-.3-.02c-.08-.01-.13-.03-.16-.06-.03-.03-.05-.07-.04-.13,0-.06.02-.13.05-.22l2.73-7.55s.04-.08.07-.11c.03-.03.07-.05.12-.07.05-.02.12-.03.2-.03.08,0,.19,0,.31,0,.13,0,.25,0,.33,0,.09,0,.16.02.21.03.05.02.1.04.13.07.03.03.05.07.07.12l2.73,7.55Zm-3.5-6.67h0l-1.4,4.05h2.83l-1.42-4.05Z"/>
    <path class="cls-1" d="m99.97,58.61s0,.06-.02.08c-.01.02-.04.04-.07.05s-.08.02-.14.03c-.06,0-.14.01-.24.01-.08,0-.16,0-.21-.01-.06,0-.11-.02-.14-.03s-.06-.03-.08-.05-.02-.05-.02-.08v-1.98h-6.12v1.98s0,.06-.02.08-.04.04-.08.05-.08.02-.14.03c-.06,0-.13.01-.22.01-.1,0-.17,0-.23-.01-.06,0-.11-.02-.14-.03s-.06-.03-.08-.05-.02-.05-.02-.08v-2.58c0-.11,0-.19.05-.24.04-.05.11-.08.2-.08h.47c.12-.15.23-.3.33-.46.1-.16.2-.34.29-.56.09-.21.18-.47.27-.78s.17-.68.26-1.13.17-.99.26-1.61c.09-.62.18-1.37.28-2.23.03-.15.07-.26.13-.34.06-.07.15-.11.26-.11h3.75c.11,0,.2.04.27.11.07.07.1.18.1.33v6.77h.81c.09,0,.15.03.19.08.04.05.06.13.06.24v2.58Zm-2.14-9.19h-2.41c-.09.78-.17,1.45-.26,2.03s-.17,1.08-.25,1.51c-.08.43-.16.79-.25,1.08-.08.3-.17.55-.25.75-.09.21-.17.38-.26.52s-.18.27-.28.39h3.97v-6.29Z"/>
    <path class="cls-1" d="m107.49,56.24c.03.09.05.17.05.22,0,.06-.01.1-.05.13-.03.03-.09.05-.17.06s-.18.01-.31.01-.23,0-.31,0c-.08,0-.14-.02-.18-.03s-.07-.03-.09-.06c-.02-.03-.04-.06-.05-.09l-.7-1.98h-3.38l-.67,1.95s-.03.07-.05.1c-.02.03-.05.05-.09.07-.04.02-.1.03-.17.04s-.17.01-.29.01-.22,0-.3-.02-.13-.03-.16-.06c-.03-.03-.05-.07-.04-.13,0-.06.02-.13.05-.22l2.73-7.55s.04-.08.07-.11c.03-.03.07-.05.12-.07.05-.02.12-.03.2-.03.08,0,.18,0,.31,0,.13,0,.25,0,.33,0,.09,0,.16.02.21.03.05.02.1.04.13.07.03.03.05.07.07.12l2.73,7.55Zm-3.5-6.67h0l-1.4,4.05h2.83l-1.42-4.05Z"/>
    <path class="cls-1" d="m113.06,56.47s0,.06-.03.08c-.02.03-.04.05-.08.06s-.09.03-.16.04-.15.02-.26.02c-.1,0-.18,0-.25-.02-.07-.01-.13-.02-.17-.04-.04-.01-.08-.03-.09-.06-.02-.03-.03-.05-.03-.08v-3.12c-.24.03-.48.05-.71.07-.23.02-.46.03-.7.03-.4,0-.78-.03-1.12-.1s-.65-.19-.9-.37c-.26-.18-.46-.44-.6-.76-.14-.32-.22-.74-.22-1.26v-2.31s0-.06.03-.08.05-.05.09-.06.09-.03.16-.04c.07-.01.15-.02.25-.02s.19,0,.26.02c.07.01.12.02.17.04s.08.03.09.06c.02.03.03.05.03.08v2.24c0,.25.03.48.08.68s.15.37.29.51c.14.14.33.25.57.33s.54.11.92.11c.23,0,.46,0,.68-.03.22-.02.44-.04.66-.06v-3.79s0-.06.03-.08c.02-.03.05-.05.09-.06.04-.01.1-.03.17-.04.07-.01.16-.02.25-.02.11,0,.19,0,.26.02s.12.02.16.04.07.03.08.06c.02.03.03.05.03.08v7.82Z"/>
  </g>
</svg>