<svg xmlns="http://www.w3.org/2000/svg" data-name="Слой 1" viewBox="0 0 113.06 58.78"><path d="M18.28 31.21c0 .3-.02.57-.05.8q-.045.345-.18.57c-.08.15-.18.26-.29.33s-.23.1-.37.1H1.62c-.39 0-.76-.13-1.1-.39-.35-.26-.52-.72-.52-1.38V1.93C0 1.27.17.81.52.55s.71-.39 1.1-.39h15.59c.14 0 .26.03.37.1q.165.105.27.33c.07.15.12.34.17.57.04.23.06.51.06.85 0 .3-.02.57-.06.8s-.1.42-.17.56-.16.25-.27.32-.23.1-.37.1H4.37V14.1h11.02c.14 0 .26.04.37.11.11.08.2.18.28.32s.13.32.17.56a6.8 6.8 0 0 1 0 1.63c-.03.22-.09.4-.17.53-.08.14-.17.23-.28.29a.75.75 0 0 1-.37.09H4.37v11.76H17.4c.14 0 .26.03.37.1s.21.17.29.32c.08.14.14.33.18.56.03.23.05.51.05.85Zm24.15-.11c0 .34-.02.62-.05.85s-.09.42-.17.58-.17.28-.28.36-.24.11-.39.11H27.02c-.39 0-.76-.13-1.1-.39-.35-.26-.52-.72-.52-1.38V.81c0-.13.03-.25.1-.36q.105-.15.36-.24t.69-.15c.29-.04.63-.06 1.04-.06s.77.02 1.05.06.5.09.67.15q.255.09.36.24c.07.1.1.22.1.36v28.41h11.78c.15 0 .28.04.39.11.11.08.2.19.28.33s.13.33.17.57c.03.24.05.53.05.86Zm29.43.36c.14.37.21.67.22.9 0 .23-.06.4-.19.52-.14.12-.36.19-.67.23-.31.03-.73.05-1.26.05s-.94-.01-1.26-.04c-.31-.03-.55-.07-.71-.13q-.24-.09-.36-.24c-.12-.15-.15-.23-.22-.38l-2.82-8H50.93l-2.69 7.9c-.05.15-.12.28-.2.39s-.21.2-.37.28-.39.13-.69.17c-.3.03-.68.05-1.16.05s-.89-.02-1.21-.06q-.465-.06-.66-.24c-.13-.12-.19-.29-.18-.52 0-.23.08-.53.22-.9L55.02.91c.07-.19.16-.34.27-.46s.27-.21.48-.28.48-.11.81-.14.75-.04 1.26-.04c.54 0 .99.01 1.35.04s.64.07.86.14.39.17.51.29c.12.13.21.28.28.47l11.02 30.52ZM57.72 4.52h-.03L52.03 20.9h11.43zm55.34 27.83c0 .14-.04.25-.11.36s-.19.18-.37.24-.4.11-.67.15-.62.06-1.06.06c-.4 0-.75-.02-1.03-.06s-.51-.09-.68-.15-.28-.14-.35-.24-.1-.22-.1-.36V3.73h-.05L97.06 32.47c-.05.12-.12.22-.22.3-.09.08-.23.16-.41.22s-.39.1-.63.13-.54.04-.87.04c-.36 0-.66-.02-.91-.05s-.47-.08-.63-.14c-.17-.06-.3-.13-.39-.22a.64.64 0 0 1-.19-.28L81.74 3.73h-.03v28.62c0 .14-.04.25-.1.36-.07.1-.19.18-.37.24-.17.06-.4.11-.68.15s-.64.06-1.07.06-.77-.02-1.05-.06-.5-.09-.67-.15-.28-.14-.34-.24-.09-.22-.09-.36V2.13c0-.71.19-1.22.57-1.52s.8-.46 1.26-.46h2.68q.825 0 1.44.15c.615.15.77.26 1.08.48s.57.5.77.84c.21.34.39.74.54 1.19l9.4 23.79h.13l9.78-23.71c.19-.51.39-.94.62-1.29.22-.36.47-.64.73-.85.27-.21.56-.36.89-.46.33-.09.71-.14 1.13-.14h2.81c.26 0 .5.04.73.11s.43.2.59.36.3.36.4.61q.15.375.15.9v30.21ZM6.48 44.59v.18c0 .05-.01.09-.02.13a.3.3 0 0 1-.04.1c-.02.03-.05.06-.09.11-.04.04-.13.11-.26.19-.13.09-.3.17-.5.25q-.3.12-.69.21t-.84.09c-.53 0-1-.09-1.43-.26-.42-.18-.79-.44-1.09-.78s-.53-.77-.69-1.27q-.24-.765-.24-1.74c0-.975.09-1.28.26-1.8.17-.53.42-.97.73-1.34s.69-.65 1.13-.84.92-.29 1.45-.29c.23 0 .46.02.68.07a3.7 3.7 0 0 1 1.12.4c.14.08.25.16.31.22s.09.1.11.13a.3.3 0 0 1 .04.1c.01.04.02.09.03.14v.19c0 .08 0 .16-.01.21 0 .06-.02.11-.04.15s-.04.07-.06.09q-.03.03-.09.03c-.06 0-.14-.04-.25-.12s-.24-.17-.41-.27-.37-.19-.61-.27-.52-.12-.86-.12c-.36 0-.69.07-.99.22s-.55.36-.76.64-.37.62-.49 1.03c-.12.4-.17.87-.17 1.39s.06.97.17 1.37q.165.6.48.99c.21.27.46.47.77.6.3.14.65.2 1.03.2.32 0 .61-.04.85-.12s.45-.17.62-.27.31-.19.42-.27.2-.12.26-.12c.03 0 .06 0 .08.02s.04.04.05.07q.015.045.03.15c.015.105 0 .14 0 .24Zm7.34.99s0 .06-.03.09-.05.04-.09.06-.1.03-.17.04c-.07 0-.16.01-.26.01s-.19 0-.26-.01a.4.4 0 0 1-.26-.1q-.03-.03-.03-.09v-7.04H9.04v7.04s0 .06-.03.09q-.03.03-.09.06a.5.5 0 0 1-.16.04c-.07 0-.16.01-.26.01s-.19 0-.26-.01c-.07 0-.12-.02-.17-.04q-.06-.03-.09-.06c-.03-.03-.03-.05-.03-.09v-7.53c0-.15.04-.26.11-.33s.17-.11.28-.11h5.07c.12 0 .21.04.28.11s.1.18.1.33v7.53Zm6.75-.29c0 .08 0 .14-.01.2 0 .06-.02.1-.04.14s-.04.06-.07.08q-.045.03-.09.03h-3.9c-.1 0-.19-.03-.27-.1-.09-.06-.13-.18-.13-.34v-7.25c0-.16.04-.28.13-.34.09-.07.18-.1.27-.1h3.86s.06 0 .09.03c.03.02.05.04.07.08s.03.09.04.14c.01.06.02.13.02.21s0 .14-.02.2c-.01.06-.02.1-.04.14s-.04.06-.07.08q-.045.03-.09.03h-3.18v2.55h2.73s.06 0 .09.03c.03.02.05.04.07.08.02.03.03.08.04.14 0 .06.01.13.01.21s0 .14-.01.2c0 .05-.02.1-.04.13s-.04.06-.07.07-.06.02-.09.02h-2.73v2.91h3.22s.06 0 .09.03c.03.02.05.04.07.08.02.03.04.08.04.14s.01.13.01.21Zm8.68 2.43s0 .06-.02.08c-.01.02-.04.04-.07.05s-.08.02-.14.03c-.06 0-.14.01-.24.01-.08 0-.16 0-.21-.01-.06 0-.11-.02-.14-.03s-.06-.03-.08-.05a.2.2 0 0 1-.02-.08v-1.98h-5.55c-.12 0-.21-.04-.28-.11s-.1-.18-.1-.33v-7.53s0-.06.03-.08.05-.05.09-.06c.04-.02.1-.03.17-.04.07 0 .16-.01.26-.01s.19 0 .26.01c.07 0 .12.02.17.04q.06.03.09.06c.03.03.03.05.03.08v7.04h3.64v-7.04s0-.06.03-.08.05-.05.09-.06c.04-.02.1-.03.17-.04.07 0 .16-.01.26-.01s.19 0 .25.01c.07 0 .12.02.17.04q.06.03.09.06c.03.03.03.05.03.08v7.04h.82c.08 0 .14.02.18.07s.05.13.05.23v2.6Zm2.5-2.15s0 .06-.03.09-.05.04-.09.06c-.04.01-.1.03-.17.04-.07 0-.16.02-.26.02s-.19 0-.26-.02a.6.6 0 0 1-.17-.04c-.04-.02-.07-.03-.09-.06s-.03-.06-.03-.09v-7.8s0-.06.03-.09q.03-.045.09-.06c.04-.01.1-.03.17-.04s.15-.02.25-.02.19 0 .26.02c.07.01.12.02.17.04s.07.03.09.06.03.05.03.09v7.8Zm8.32-.22c.03.09.05.17.05.22 0 .06-.01.1-.05.13-.03.03-.09.05-.17.06-.08 0-.18.01-.31.01h-.31c-.08 0-.14-.02-.18-.03-.04-.02-.07-.03-.09-.06a.4.4 0 0 1-.05-.09l-.7-1.98h-3.38l-.67 1.95s-.03.07-.05.1-.05.05-.09.07-.1.03-.17.04c-.07 0-.17.01-.29.01s-.22 0-.3-.02c-.08-.01-.13-.03-.16-.06a.14.14 0 0 1-.04-.13c0-.06.02-.13.05-.22l2.73-7.55s.04-.08.07-.11.07-.05.12-.07.12-.03.2-.03h.64c.09 0 .16.02.21.03.05.02.1.04.13.07s.05.07.07.12l2.73 7.55Zm-3.5-6.67-1.4 4.05H38l-1.42-4.05Zm10.62 6.9s0 .06-.03.09-.05.04-.09.06-.1.03-.17.04c-.07 0-.16.01-.26.01s-.19 0-.26-.01c-.07 0-.12-.02-.17-.04q-.06-.03-.09-.06c-.03-.03-.03-.05-.03-.09v-7.04H43.8c-.11.97-.23 1.82-.34 2.56q-.165 1.11-.36 1.92c-.195.81-.26.99-.41 1.35s-.32.65-.52.87-.41.38-.66.47c-.24.09-.52.14-.84.14-.04 0-.08 0-.11-.03-.03-.02-.06-.04-.08-.08a.6.6 0 0 1-.05-.14c-.01-.06-.02-.13-.02-.21 0-.11 0-.19.02-.26a.5.5 0 0 1 .04-.16c.02-.04.04-.07.07-.09q.045-.03.09-.03c.16 0 .3-.03.44-.09s.27-.18.39-.35c.13-.17.25-.42.36-.73.12-.31.23-.72.34-1.22s.22-1.11.32-1.82.21-1.56.31-2.53c.02-.18.06-.3.13-.37a.36.36 0 0 1 .28-.11h3.61c.12 0 .21.04.28.11s.1.18.1.33v7.53Zm7.65-2.38c0 .33-.05.64-.15.94s-.27.56-.5.8q-.345.36-.93.57c-.39.15-.93.22-1.62.22h-1.8c-.05 0-.1 0-.15-.02s-.09-.04-.13-.08-.07-.08-.1-.14a.4.4 0 0 1-.04-.2v-7.53s0-.06.03-.08q.03-.045.09-.06c.04-.02.1-.03.17-.04.07 0 .15-.01.25-.01s.19 0 .26.01c.07 0 .12.02.17.04q.06.03.09.06c.03.03.03.05.03.08v3.05h1.23c.6 0 1.07.05 1.42.15s.66.25.9.45c.25.2.44.45.58.75s.21.65.21 1.04Zm-1.12.1c0-.26-.04-.48-.11-.68a1.3 1.3 0 0 0-.34-.5c-.15-.14-.35-.24-.58-.31s-.59-.11-1.06-.11H50.5v3.14h1.21q.75 0 1.11-.15c.36-.15.43-.23.56-.38s.22-.32.27-.5.08-.35.08-.51Zm8.45 2.27s0 .06-.03.09-.05.04-.09.06c-.04.01-.1.03-.17.04-.07 0-.15.02-.25.02-.11 0-.2 0-.26-.02a.5.5 0 0 1-.16-.04c-.04-.02-.07-.03-.09-.06s-.03-.06-.03-.09v-3.61h-3.7v3.61s0 .06-.03.09-.05.04-.09.06c-.04.01-.1.03-.17.04-.07 0-.16.02-.26.02s-.19 0-.26-.02a.6.6 0 0 1-.17-.04c-.04-.02-.07-.03-.09-.06s-.03-.06-.03-.09v-7.8s0-.06.03-.09.05-.05.09-.06.1-.03.17-.04.16-.02.26-.02.19 0 .26.02c.07.01.12.02.17.04s.07.03.09.06.03.05.03.09v3.26h3.7v-3.26s0-.06.03-.09.05-.05.09-.06.1-.03.16-.04.16-.02.26-.02.19 0 .25.02c.07.01.12.02.17.04s.07.03.09.06.03.05.03.09zm3.31 0s0 .06-.03.09-.05.04-.09.06c-.04.01-.1.03-.17.04-.07 0-.16.02-.26.02s-.19 0-.26-.02a.6.6 0 0 1-.17-.04c-.04-.02-.07-.03-.09-.06s-.03-.06-.03-.09v-7.8s0-.06.03-.09q.03-.045.09-.06c.04-.01.1-.03.17-.04s.15-.02.25-.02.19 0 .26.02c.07.01.12.02.17.04s.07.03.09.06.03.05.03.09v7.8Zm9.65-2.11c0 .36-.07.69-.2.98s-.33.55-.58.76c-.26.21-.58.37-.95.49s-.81.17-1.3.17c-.27 0-.52-.02-.74-.06a3.3 3.3 0 0 1-.94-.31c-.09-.05-.15-.09-.19-.12s-.06-.06-.08-.09a.3.3 0 0 1-.04-.12c0-.05-.02-.11-.03-.18 0-.07-.01-.15-.01-.26 0-.13.01-.22.04-.26.03-.05.06-.07.11-.07s.12.03.21.08c.09.06.21.12.36.19s.33.14.54.19.46.08.76.08c.28 0 .53-.03.76-.1s.42-.17.58-.29c.16-.13.29-.28.38-.45.09-.18.14-.37.14-.58 0-.23-.04-.44-.13-.63s-.21-.35-.37-.48c-.17-.13-.37-.24-.62-.31s-.53-.11-.85-.11h-.96c-.05 0-.09 0-.12-.02s-.05-.04-.08-.07a.25.25 0 0 1-.04-.13c0-.06-.01-.13-.01-.21s0-.15.01-.2c0-.06.02-.1.04-.14s.05-.06.08-.08.07-.03.11-.03h.9c.28 0 .53-.03.76-.09s.42-.15.58-.28c.16-.12.29-.27.37-.45.09-.18.13-.38.13-.61q0-.27-.09-.51a.9.9 0 0 0-.28-.39 1.3 1.3 0 0 0-.46-.25c-.18-.06-.4-.09-.64-.09q-.405 0-.72.09c-.21.06-.39.12-.54.19s-.28.13-.38.19-.18.09-.23.09c-.03 0-.05 0-.07-.02s-.03-.03-.04-.07a1 1 0 0 1-.03-.13v-.36c0-.05.01-.1.02-.14s.02-.08.04-.12.04-.07.08-.1q.045-.045.24-.15c.195-.105.28-.13.47-.18q.27-.09.63-.15.345-.06.75-.06.6 0 1.05.15c.3.1.55.23.75.41s.35.39.45.64.15.52.15.82c0 .28-.04.52-.12.75q-.12.33-.33.57c-.14.16-.31.29-.49.4q-.285.15-.6.21v.02c.25.03.49.1.7.21s.41.26.57.44.28.38.38.62c.09.23.14.48.14.75Zm7.72 1.89c.03.09.05.17.05.22 0 .06-.01.1-.05.13-.03.03-.09.05-.17.06-.08 0-.18.01-.31.01h-.31c-.08 0-.14-.02-.18-.03-.04-.02-.07-.03-.09-.06a.4.4 0 0 1-.05-.09l-.7-1.98h-3.38l-.67 1.95s-.03.07-.05.1-.05.05-.09.07-.1.03-.17.04c-.07 0-.17.01-.29.01s-.22 0-.3-.02c-.08-.01-.13-.03-.16-.06a.14.14 0 0 1-.04-.13c0-.06.02-.13.05-.22l2.73-7.55s.04-.08.07-.11.07-.05.12-.07.12-.03.2-.03h.64c.09 0 .16.02.21.03.05.02.1.04.13.07s.05.07.07.12l2.73 7.55Zm-3.5-6.67-1.4 4.05h2.83l-1.42-4.05Zm10 5.91v.18c0 .05-.01.09-.02.13s-.03.07-.04.1c-.02.03-.04.06-.09.11-.04.04-.13.11-.26.19-.13.09-.3.17-.5.25s-.43.15-.68.21c-.26.06-.54.09-.85.09-.53 0-1-.09-1.43-.26-.42-.18-.79-.44-1.09-.78s-.53-.77-.69-1.27q-.24-.765-.24-1.74c0-.975.09-1.28.26-1.8.17-.53.42-.97.73-1.34s.69-.65 1.13-.84.92-.29 1.45-.29c.23 0 .46.02.68.07.22.04.43.1.61.17.19.07.36.15.5.23.15.09.25.16.31.22s.09.1.11.13a.3.3 0 0 1 .04.1c.01.04.02.09.03.14v.19c0 .08 0 .16-.01.21 0 .06-.02.11-.04.15s-.04.07-.06.09q-.03.03-.09.03c-.06 0-.14-.04-.25-.12-.1-.08-.24-.17-.41-.27s-.37-.19-.61-.27-.52-.12-.86-.12c-.36 0-.69.07-.99.22s-.55.36-.76.64-.37.62-.49 1.03c-.12.4-.17.87-.17 1.39s.06.97.17 1.37q.165.6.48.99c.21.27.46.47.77.6.3.14.65.2 1.03.2.32 0 .61-.04.85-.12s.45-.17.62-.27.31-.19.42-.27.2-.12.26-.12c.03 0 .06 0 .08.02.02.01.04.04.05.07q.015.045.03.15v.24Zm8.31-3.01c0 .66-.08 1.25-.23 1.78-.16.53-.39.98-.7 1.35s-.69.66-1.16.85c-.47.2-1.01.3-1.63.3s-1.14-.09-1.59-.27-.81-.45-1.11-.8a3.4 3.4 0 0 1-.65-1.29c-.14-.52-.21-1.11-.21-1.78s.08-1.22.23-1.75c.15-.52.39-.97.7-1.34s.7-.65 1.16-.85 1.01-.3 1.63-.3 1.12.09 1.56.27.81.44 1.11.79.52.77.66 1.28.22 1.09.22 1.75Zm-1.14.08c0-.46-.04-.89-.12-1.28-.08-.4-.22-.74-.41-1.03s-.44-.52-.76-.68-.71-.24-1.18-.24-.86.09-1.18.26-.58.41-.78.7-.34.64-.43 1.03-.13.8-.13 1.23q0 .72.12 1.32c.12.6.21.75.4 1.04s.44.52.76.68.71.24 1.19.24.87-.09 1.19-.26.58-.41.78-.71.34-.65.42-1.04.13-.81.13-1.25Zm8.27 1.66c0 .31-.05.62-.15.91s-.26.55-.48.77-.51.4-.88.54c-.36.14-.86.2-1.49.2h-1.96c-.1 0-.19-.03-.28-.1-.08-.06-.13-.18-.13-.35v-7.24c0-.16.04-.28.13-.34.08-.07.17-.1.27-.1h4.22s.07 0 .1.03c.03.02.05.04.07.08s.03.09.04.14c0 .06.01.13.01.21s0 .14-.01.2c0 .06-.02.11-.04.14a.3.3 0 0 1-.07.08c-.03.02-.06.03-.1.03h-3.54v2.55h1.49c.51 0 .93.05 1.26.16q.495.165.84.45c.23.2.4.44.51.71q.18.42.18.93Zm-1.12.08c0-.23-.04-.43-.11-.61s-.18-.33-.32-.46-.32-.22-.53-.29-.5-.1-.85-.1h-1.36v2.93h1.39c.34 0 .61-.03.82-.1s.39-.16.52-.29c.14-.13.24-.28.31-.46s.11-.38.11-.61Zm8.84 2.18s0 .06-.03.09-.05.04-.09.06-.1.03-.17.04c-.07 0-.16.01-.26.01s-.19 0-.26-.01c-.07 0-.13-.02-.17-.04s-.07-.04-.08-.06q-.03-.03-.03-.09v-5.74c0-.14.01-.27.02-.38h-.01c-.03.06-.07.12-.11.19s-.08.14-.13.21l-.14.22c-.05.07-.09.15-.14.22l-3.52 5.29s-.05.06-.08.09-.06.04-.1.06c-.04.01-.09.03-.14.03h-.21c-.1 0-.17 0-.24-.01-.06 0-.11-.02-.14-.04-.04-.02-.06-.04-.08-.07s-.02-.06-.02-.09v-7.8s0-.06.03-.08q.03-.045.09-.06c.04-.02.1-.03.17-.04.07 0 .15-.01.25-.01s.19 0 .26.01c.07 0 .12.02.17.04q.06.03.09.06c.03.03.03.05.03.08v5.73c0 .13 0 .26-.02.38h.01c.07-.1.15-.23.24-.38s.18-.3.29-.44l3.51-5.3s.04-.06.07-.08.06-.04.1-.06a.3.3 0 0 1 .14-.03c.06 0 .12-.01.21-.01.1 0 .17 0 .24.01.06 0 .11.02.14.04.04.02.06.04.08.06s.02.05.02.09v7.8ZM7.98 58.61s0 .06-.02.08-.04.04-.07.05c-.04.01-.08.02-.14.03-.06 0-.14.01-.24.01-.08 0-.16 0-.21-.01-.06 0-.11-.02-.14-.03-.04-.01-.06-.03-.08-.05a.2.2 0 0 1-.02-.08v-1.98H.93v1.98s0 .06-.02.08c-.01.02-.04.04-.08.05s-.08.02-.14.03c-.06 0-.13.01-.22.01-.1 0-.17 0-.23-.01-.06 0-.11-.02-.14-.03-.04-.01-.06-.03-.08-.05a.2.2 0 0 1-.02-.08v-2.58c0-.11 0-.19.05-.24s.11-.08.19-.08h.47c.12-.15.23-.3.33-.46s.2-.34.29-.56.18-.47.27-.78.17-.68.26-1.13.17-.99.26-1.61.18-1.37.28-2.23c.03-.15.07-.26.13-.34.06-.07.15-.11.26-.11h3.75c.11 0 .2.04.27.11s.1.18.1.33v6.77h.81c.09 0 .15.03.19.08s.06.13.06.24v2.58Zm-2.14-9.19H3.43c-.09.78-.17 1.45-.26 2.03s-.17 1.08-.25 1.51-.16.79-.25 1.08c-.08.3-.17.55-.25.75-.09.21-.17.38-.26.52s-.18.27-.28.39h3.97v-6.29Zm9.26 7.05s0 .06-.03.08-.05.04-.09.06-.1.03-.17.04c-.07 0-.16.01-.26.01s-.19 0-.26-.01c-.07 0-.12-.02-.17-.04s-.07-.04-.09-.06-.03-.05-.03-.08v-7.04h-2.29c-.11.97-.23 1.82-.34 2.56q-.165 1.11-.36 1.92c-.195.81-.26.99-.41 1.35s-.32.65-.52.87-.41.38-.66.47c-.24.09-.52.14-.84.14-.04 0-.08 0-.11-.03s-.06-.04-.08-.08a.5.5 0 0 1-.05-.15c-.01-.06-.02-.13-.02-.21 0-.1 0-.19.02-.26a.5.5 0 0 1 .04-.16c.02-.04.04-.07.07-.09q.045-.03.09-.03c.16 0 .3-.03.44-.09s.27-.18.39-.35.25-.42.36-.73c.12-.31.23-.72.34-1.22s.22-1.11.32-1.82.21-1.56.31-2.53c.02-.18.06-.3.13-.37a.36.36 0 0 1 .28-.11h3.61c.12 0 .21.04.28.11s.1.18.1.33v7.53Zm7.21 0s0 .06-.03.08-.05.04-.09.06-.1.03-.17.04c-.07 0-.16.01-.26.01s-.19 0-.26-.01a.34.34 0 0 1-.16-.04.4.4 0 0 1-.09-.06.1.1 0 0 1-.03-.08v-3.39h-.81c-.33 0-.58.03-.75.1s-.32.16-.45.29-.24.28-.33.46-.18.38-.26.6l-.7 1.87c-.02.05-.04.09-.07.13-.02.03-.06.06-.1.08a.7.7 0 0 1-.17.04c-.07 0-.16.01-.27.01-.12 0-.22 0-.29-.02s-.13-.02-.17-.04-.07-.04-.08-.06-.02-.05-.02-.09 0-.09.02-.15q.015-.09.09-.27l.67-1.73c.08-.21.16-.4.25-.57s.18-.32.28-.44.21-.24.33-.33.25-.16.39-.22c-.25-.06-.48-.15-.68-.26s-.37-.25-.51-.41-.24-.36-.32-.57a2.3 2.3 0 0 1-.11-.71c0-.34.06-.64.17-.93.11-.28.28-.53.52-.73q.345-.315.87-.48c.35-.12.85-.17 1.49-.17h1.68c.1 0 .19.03.28.1.08.06.13.18.13.34v7.53Zm-1.08-7.08H20.2c-.43 0-.75.03-.97.1s-.39.17-.53.29a1 1 0 0 0-.29.44c-.06.17-.09.35-.09.55s.03.38.1.55.17.32.31.45.32.23.54.3.52.11.91.11h1.06v-2.8Zm11.64 4.9a2.3 2.3 0 0 1-.37 1.29c-.11.17-.26.32-.42.45-.17.13-.35.24-.56.33s-.43.15-.67.2c-.24.04-.51.07-.81.07h-2.12c-.1 0-.19-.03-.27-.1-.09-.06-.13-.18-.13-.34v-7.25c0-.16.04-.28.13-.34.09-.07.18-.1.27-.1h1.85c.49 0 .88.05 1.19.14s.57.23.78.4c.21.18.36.39.47.65.1.26.16.55.16.87a2.1 2.1 0 0 1-.27 1.04c-.09.15-.2.28-.34.4s-.29.21-.47.29c.22.04.43.12.62.23s.36.25.51.42.26.37.34.6.13.48.13.76Zm-1.63-3.64c0-.2-.03-.38-.08-.53-.05-.16-.14-.29-.26-.41s-.27-.2-.46-.25q-.285-.09-.75-.09h-1.12V52h1.23c.28 0 .51-.04.68-.11a1.2 1.2 0 0 0 .68-.73c.05-.16.08-.34.08-.51m.49 3.7c0-.24-.04-.46-.12-.64s-.19-.34-.34-.46-.33-.22-.56-.29c-.22-.06-.51-.1-.84-.1h-1.29v2.87h1.57c.25 0 .46-.03.65-.09.18-.06.35-.15.49-.26s.25-.26.33-.43q.12-.255.12-.6Zm6 .01c-.2.49-.38.88-.55 1.19q-.255.465-.51.72c-.18.17-.37.29-.57.35-.21.06-.44.09-.71.09-.09 0-.19 0-.28-.02s-.18-.03-.27-.05-.16-.05-.22-.08a1 1 0 0 1-.14-.08c-.03-.02-.05-.05-.07-.08-.01-.03-.03-.06-.04-.1a.6.6 0 0 1-.02-.16v-.23c0-.16.02-.27.05-.35s.08-.11.14-.11c.03 0 .07.01.12.04s.1.05.16.09c.06.03.14.06.23.09s.2.04.32.04c.1 0 .2-.01.29-.03s.18-.07.26-.15.17-.18.25-.32c.09-.14.18-.32.29-.56l-2.9-5.81a.7.7 0 0 1-.07-.21c0-.06 0-.1.04-.13s.09-.05.17-.06.18-.02.31-.02c.12 0 .22 0 .29.01.07 0 .13.02.18.04s.08.04.11.08c.03.03.05.07.07.12l1.45 2.97c.16.33.32.65.46.96s.29.61.42.92h.02c.11-.32.23-.64.35-.95s.25-.66.41-1.04l1.14-2.9s.03-.07.05-.09.06-.05.1-.06q.06-.03.18-.03h.3c.12 0 .23 0 .3.02s.13.03.16.06.05.06.05.1-.01.09-.04.15l-2.3 5.58Zm8.03-.01c0 .36-.07.69-.2.98s-.33.55-.58.76c-.26.21-.58.37-.95.49s-.81.17-1.3.17c-.27 0-.52-.02-.74-.06a3.3 3.3 0 0 1-.94-.31c-.09-.05-.15-.09-.19-.12s-.06-.06-.08-.09-.03-.07-.04-.12-.02-.11-.03-.18c0-.07-.01-.15-.01-.26 0-.13.01-.22.04-.26.03-.05.06-.07.11-.07s.12.03.21.08c.09.06.21.12.36.19s.33.14.54.19.46.08.76.08c.28 0 .53-.03.76-.1s.42-.17.58-.29c.16-.13.29-.28.38-.45.09-.18.14-.37.14-.58 0-.23-.04-.44-.13-.63-.08-.19-.21-.35-.37-.48-.17-.13-.37-.24-.62-.31s-.53-.11-.85-.11h-.96c-.05 0-.09 0-.12-.02s-.05-.04-.08-.07a.26.26 0 0 1-.04-.14c0-.06-.01-.13-.01-.21s0-.15.01-.2.02-.1.04-.14.05-.06.08-.08.07-.03.11-.03h.9c.28 0 .53-.03.76-.09s.42-.16.58-.28.29-.27.37-.45a1.48 1.48 0 0 0 .04-1.12.9.9 0 0 0-.28-.39 1.3 1.3 0 0 0-.46-.25c-.18-.06-.4-.09-.64-.09q-.405 0-.72.09c-.21.06-.39.12-.54.19s-.28.13-.38.19-.18.09-.23.09c-.03 0-.05 0-.07-.02s-.03-.03-.04-.07a1 1 0 0 1-.03-.13v-.36c0-.05.01-.1.02-.14s.02-.08.04-.12.04-.07.08-.1q.045-.045.24-.15c.195-.105.28-.13.47-.18q.27-.09.63-.15.345-.06.75-.06.6 0 1.05.15c.3.1.55.23.75.41s.35.39.45.64.15.52.15.82c0 .28-.04.52-.12.75q-.12.33-.33.57c-.14.16-.31.29-.49.4s-.39.17-.6.21v.02c.25.03.49.1.7.21s.41.26.57.44.28.38.38.62c.09.23.14.48.14.75Zm7.13-.26c0 .33-.05.64-.15.94s-.27.56-.5.8q-.345.36-.93.57c-.39.15-.93.22-1.62.22h-1.8c-.05 0-.1 0-.15-.02s-.09-.04-.13-.08-.07-.08-.1-.14a.4.4 0 0 1-.04-.2v-7.53s0-.06.03-.08q.03-.045.09-.06c.04-.02.1-.03.17-.04.07 0 .15-.01.25-.01s.19 0 .26.01c.07 0 .12.02.17.04q.06.03.09.06c.03.03.03.05.03.08v3.05h1.23c.6 0 1.07.05 1.42.15s.66.25.9.45c.25.2.44.45.58.75s.21.65.21 1.04Zm-1.12.1c0-.26-.04-.48-.11-.68a1.3 1.3 0 0 0-.34-.5c-.15-.14-.35-.24-.58-.31s-.59-.11-1.06-.11h-1.13v3.14h1.21q.75 0 1.11-.15c.36-.15.43-.23.56-.38s.22-.32.27-.5.08-.35.08-.51Zm8.01 2.27s0 .07-.03.09-.04.05-.08.06c-.04.02-.1.03-.17.04s-.16.01-.26.01c-.12 0-.22 0-.29-.02a.8.8 0 0 1-.18-.05.3.3 0 0 1-.1-.08.3.3 0 0 1-.05-.12l-.75-1.99c-.1-.27-.21-.5-.33-.68s-.26-.34-.42-.47q-.24-.18-.54-.27c-.3-.09-.43-.09-.68-.09h-.45v3.56s0 .06-.03.09-.05.05-.09.06-.1.03-.17.04-.16.02-.26.02-.19 0-.26-.02-.13-.02-.17-.04-.07-.03-.09-.06-.03-.05-.03-.09v-7.81s0-.06.03-.08.05-.05.09-.06.1-.03.17-.04.16-.02.26-.02.19 0 .26.02c.07.01.12.02.17.04s.07.03.09.06.03.05.03.08v3.32h.45q.375 0 .66-.09c.285-.09.36-.15.5-.27.15-.12.27-.28.38-.46q.165-.285.3-.66l.62-1.77s.03-.08.05-.11.05-.06.09-.08.1-.04.17-.05.17-.02.29-.02c.11 0 .2 0 .26.01.07 0 .12.02.16.04s.07.04.08.06.02.05.02.09c0 .05 0 .1-.02.15-.01.06-.03.12-.06.2l-.65 1.69c-.09.26-.19.48-.29.66s-.21.34-.32.47c-.12.13-.25.24-.38.33s-.29.15-.47.2c.2.08.37.17.52.26s.29.21.42.35.25.3.36.5.22.43.32.7l.77 1.94c.04.11.07.19.08.23 0 .04.01.08.01.12Zm7.74.01s0 .06-.03.08-.05.04-.09.06-.1.03-.17.04c-.07 0-.16.01-.26.01s-.19 0-.26-.01-.13-.02-.17-.04-.07-.04-.08-.06-.03-.05-.03-.08v-5.75c0-.15.01-.27.02-.38h-.01c-.03.06-.07.12-.11.19s-.08.14-.13.21-.09.15-.14.22-.09.15-.14.22l-3.52 5.29s-.05.06-.08.09-.06.05-.1.06-.09.03-.14.03h-.21c-.1 0-.17 0-.24-.01-.06 0-.11-.02-.14-.04a.2.2 0 0 1-.08-.07.3.3 0 0 1-.02-.09v-7.8s0-.06.03-.08q.03-.045.09-.06c.04-.02.1-.03.17-.04.07 0 .15-.01.25-.01s.19 0 .26.01c.07 0 .12.02.17.04q.06.03.09.06c.03.03.03.05.03.08v5.74c0 .13 0 .26-.02.38h.01c.07-.11.15-.23.24-.38s.19-.3.29-.44l3.51-5.3s.04-.06.07-.08.06-.04.1-.06a.3.3 0 0 1 .14-.03c.05 0 .12-.01.21-.01.1 0 .17 0 .24.01.06 0 .11.02.14.04.04.02.06.04.08.06a.2.2 0 0 1 .02.09v7.81Zm7.4-.23c.05.09.09.17.1.22.01.06 0 .1-.04.13s-.1.05-.19.06-.2.02-.34.02h-.31c-.08 0-.13-.02-.18-.03-.04-.02-.08-.04-.1-.06a.4.4 0 0 1-.06-.09l-1.81-3.24-1.83 3.24s-.04.07-.07.09-.06.05-.1.06-.1.03-.18.03h-.3c-.14 0-.25 0-.33-.02s-.14-.03-.17-.06-.04-.07-.03-.13c.01-.05.04-.13.1-.22l2.22-3.74-2.12-3.61c-.05-.09-.08-.17-.1-.22-.01-.06 0-.1.03-.13q.045-.045.18-.06c.08 0 .2-.01.35-.01h.31c.08 0 .14.02.19.03s.08.04.1.06.04.06.07.09l1.75 3.04 1.73-3.04.06-.09q.03-.045.09-.06c.04-.01.1-.03.17-.03h.29c.13 0 .24 0 .32.02q.12.015.18.06c.04.03.05.07.04.13 0 .06-.04.13-.09.22l-2.11 3.59 2.2 3.76Zm8.99-1.89c0 .36-.07.69-.2.98s-.33.55-.58.76c-.26.21-.58.37-.95.49s-.81.17-1.3.17c-.27 0-.52-.02-.74-.06a3.3 3.3 0 0 1-.94-.31c-.09-.05-.15-.09-.19-.12s-.06-.06-.08-.09-.03-.07-.04-.12-.02-.11-.03-.18c0-.07-.01-.15-.01-.26 0-.13.01-.22.04-.26.03-.05.06-.07.11-.07s.12.03.21.08c.09.06.21.12.36.19s.33.14.54.19.46.08.76.08c.28 0 .53-.03.76-.1s.42-.17.58-.29c.16-.13.29-.28.38-.45.09-.18.14-.37.14-.58 0-.23-.04-.44-.13-.63-.08-.19-.21-.35-.37-.48-.17-.13-.37-.24-.62-.31s-.53-.11-.85-.11h-.96c-.05 0-.09 0-.12-.02s-.05-.04-.08-.07a.26.26 0 0 1-.04-.14c0-.06-.01-.13-.01-.21s0-.15.01-.2.02-.1.04-.14.05-.06.08-.08.07-.03.11-.03h.9c.28 0 .53-.03.76-.09s.42-.16.58-.28.29-.27.37-.45a1.48 1.48 0 0 0 .04-1.12.9.9 0 0 0-.28-.39 1.3 1.3 0 0 0-.46-.25c-.18-.06-.4-.09-.64-.09q-.405 0-.72.09c-.21.06-.39.12-.54.19s-.28.13-.38.19-.18.09-.23.09c-.03 0-.05 0-.07-.02s-.03-.03-.04-.07a1 1 0 0 1-.03-.13v-.36c0-.05.01-.1.02-.14s.02-.08.04-.12.04-.07.08-.1q.045-.045.24-.15c.195-.105.28-.13.47-.18q.27-.09.63-.15.345-.06.75-.06.6 0 1.05.15c.3.1.55.23.75.41s.35.39.45.64.15.52.15.82c0 .28-.04.52-.12.75q-.12.33-.33.57c-.14.16-.31.29-.49.4s-.39.17-.6.21v.02c.25.03.49.1.7.21s.41.26.57.44.28.38.38.62c.09.23.14.48.14.75Zm7.72 1.89c.03.09.05.17.05.22 0 .06-.01.1-.05.13-.03.03-.09.05-.17.06s-.18.01-.31.01h-.31c-.08 0-.14-.02-.18-.03q-.06-.015-.09-.06c-.03-.045-.04-.06-.05-.09l-.7-1.98h-3.38l-.67 1.95s-.03.07-.05.1-.05.05-.09.07-.1.03-.17.04c-.07 0-.17.01-.29.01s-.22 0-.3-.02c-.08-.01-.13-.03-.16-.06a.14.14 0 0 1-.04-.13c0-.06.02-.13.05-.22l2.73-7.55s.04-.08.07-.11.07-.05.12-.07.12-.03.2-.03h.64c.09 0 .16.02.21.03.05.02.1.04.13.07s.05.07.07.12l2.73 7.55Zm-3.5-6.67-1.4 4.05h2.83l-1.42-4.05Zm11.84 9.04s0 .06-.02.08c-.01.02-.04.04-.07.05s-.08.02-.14.03c-.06 0-.14.01-.24.01-.08 0-.16 0-.21-.01-.06 0-.11-.02-.14-.03s-.06-.03-.08-.05-.02-.05-.02-.08v-1.98h-6.12v1.98s0 .06-.02.08-.04.04-.08.05-.08.02-.14.03c-.06 0-.13.01-.22.01-.1 0-.17 0-.23-.01-.06 0-.11-.02-.14-.03s-.06-.03-.08-.05-.02-.05-.02-.08v-2.58c0-.11 0-.19.05-.24.04-.05.11-.08.2-.08h.47c.12-.15.23-.3.33-.46s.2-.34.29-.56q.135-.315.27-.78c.135-.465.17-.68.26-1.13s.17-.99.26-1.61.18-1.37.28-2.23c.03-.15.07-.26.13-.34.06-.07.15-.11.26-.11h3.75c.11 0 .2.04.27.11s.1.18.1.33v6.77h.81c.09 0 .15.03.19.08q.06.075.06.24v2.58Zm-2.14-9.19h-2.41c-.09.78-.17 1.45-.26 2.03s-.17 1.08-.25 1.51-.16.79-.25 1.08c-.08.3-.17.55-.25.75-.09.21-.17.38-.26.52s-.18.27-.28.39h3.97v-6.29Zm9.66 6.82c.03.09.05.17.05.22 0 .06-.01.1-.05.13-.03.03-.09.05-.17.06s-.18.01-.31.01h-.31c-.08 0-.14-.02-.18-.03s-.07-.03-.09-.06a.4.4 0 0 1-.05-.09l-.7-1.98h-3.38l-.67 1.95s-.03.07-.05.1-.05.05-.09.07-.1.03-.17.04-.17.01-.29.01-.22 0-.3-.02-.13-.03-.16-.06a.14.14 0 0 1-.04-.13c0-.06.02-.13.05-.22l2.73-7.55s.04-.08.07-.11.07-.05.12-.07.12-.03.2-.03h.64c.09 0 .16.02.21.03.05.02.1.04.13.07s.05.07.07.12l2.73 7.55Zm-3.5-6.67-1.4 4.05h2.83L104 49.57Zm9.07 6.9s0 .06-.03.08c-.02.03-.04.05-.08.06s-.09.03-.16.04-.15.02-.26.02c-.1 0-.18 0-.25-.02a.6.6 0 0 1-.17-.04c-.04-.01-.08-.03-.09-.06-.02-.03-.03-.05-.03-.08v-3.12c-.24.03-.48.05-.71.07s-.46.03-.7.03c-.4 0-.78-.03-1.12-.1s-.65-.19-.9-.37a1.76 1.76 0 0 1-.6-.76c-.14-.32-.22-.74-.22-1.26v-2.31s0-.06.03-.08.05-.05.09-.06.09-.03.16-.04.15-.02.25-.02.19 0 .26.02c.07.01.12.02.17.04s.08.03.09.06c.02.03.03.05.03.08v2.24c0 .25.03.48.08.68s.15.37.29.51q.21.21.57.33c.36.12.54.11.92.11.23 0 .46 0 .68-.03l.66-.06v-3.79s0-.06.03-.08q.03-.045.09-.06c.04-.01.1-.03.17-.04s.16-.02.25-.02c.11 0 .19 0 .26.02s.12.02.16.04.07.03.08.06c.02.03.03.05.03.08v7.82Z" style="fill:#1d1d1b"/></svg>