<svg xmlns="http://www.w3.org/2000/svg" data-name="Слой 1" viewBox="0 0 113.06 58.78"><path d="M18.28 31.21c0 .3-.02.57-.05.8q-.045.345-.18.57c-.08.15-.18.26-.29.33s-.23.1-.37.1H1.62c-.39 0-.76-.13-1.1-.39-.35-.26-.52-.72-.52-1.38V1.93C0 1.27.17.81.52.55s.71-.39 1.1-.39h15.59c.14 0 .26.03.37.1q.165.105.27.33c.07.15.12.34.17.57.04.23.06.51.06.85 0 .3-.02.57-.06.8s-.1.42-.17.56-.16.25-.27.32-.23.1-.37.1H4.37V14.1h11.02c.14 0 .26.04.37.11.11.08.2.18.28.32s.13.32.17.56a6.8 6.8 0 0 1 0 1.63c-.03.22-.09.4-.17.53-.08.14-.17.23-.28.29a.75.75 0 0 1-.37.09H4.37v11.76H17.4c.14 0 .26.03.37.1s.21.17.29.32c.08.14.14.33.18.56.03.23.05.51.05.85Zm24.15-.11c0 .34-.02.62-.05.85s-.09.42-.17.58-.17.28-.28.36-.24.11-.39.11H27.02c-.39 0-.76-.13-1.1-.39-.35-.26-.52-.72-.52-1.38V.81c0-.13.03-.25.1-.36q.105-.15.36-.24t.69-.15c.29-.04.63-.06 1.04-.06s.77.02 1.05.06.5.09.67.15q.255.09.36.24c.07.1.1.22.1.36v28.41h11.78c.15 0 .28.04.39.11.11.08.2.19.28.33s.13.33.17.57c.03.24.05.53.05.86Zm29.43.36c.14.37.21.67.22.9 0 .23-.06.4-.19.52-.14.12-.36.19-.67.23-.31.03-.73.05-1.26.05s-.94-.01-1.26-.04c-.31-.03-.55-.07-.71-.13q-.24-.09-.36-.24c-.12-.15-.15-.23-.22-.38l-2.82-8H50.93l-2.69 7.9c-.05.15-.12.28-.2.39s-.21.2-.37.28-.39.13-.69.17c-.3.03-.68.05-1.16.05s-.89-.02-1.21-.06q-.465-.06-.66-.24c-.13-.12-.19-.29-.18-.52 0-.23.08-.53.22-.9L55.02.91c.07-.19.16-.34.27-.46s.27-.21.48-.28.48-.11.81-.14.75-.04 1.26-.04c.54 0 .99.01 1.35.04s.64.07.86.14.39.17.51.29c.12.13.21.28.28.47l11.02 30.52ZM57.72 4.52h-.03L52.03 20.9h11.43zm55.34 27.83c0 .14-.04.25-.11.36s-.19.18-.37.24-.4.11-.67.15-.62.06-1.06.06c-.4 0-.75-.02-1.03-.06s-.51-.09-.68-.15-.28-.14-.35-.24-.1-.22-.1-.36V3.73h-.05L97.06 32.47c-.05.12-.12.22-.22.3-.09.08-.23.16-.41.22s-.39.1-.63.13-.54.04-.87.04c-.36 0-.66-.02-.91-.05s-.47-.08-.63-.14c-.17-.06-.3-.13-.39-.22a.64.64 0 0 1-.19-.28L81.74 3.73h-.03v28.62c0 .14-.04.25-.1.36-.07.1-.19.18-.37.24-.17.06-.4.11-.68.15s-.64.06-1.07.06-.77-.02-1.05-.06-.5-.09-.67-.15-.28-.14-.34-.24-.09-.22-.09-.36V2.13c0-.71.19-1.22.57-1.52s.8-.46 1.26-.46h2.68q.825 0 1.44.15c.615.15.77.26 1.08.48s.57.5.77.84c.21.34.39.74.54 1.19l9.4 23.79h.13l9.78-23.71c.19-.51.39-.94.62-1.29.22-.36.47-.64.73-.85.27-.21.56-.36.89-.46.33-.09.71-.14 1.13-.14h2.81c.26 0 .5.04.73.11s.43.2.59.36.3.36.4.61q.15.375.15.9v30.21Zm-93.13 12.4c0 .4-.07.76-.22 1.07s-.35.58-.62.8c-.26.22-.57.38-.93.49s-.74.17-1.15.17c-.29 0-.55-.02-.8-.07a5 5 0 0 1-.66-.18c-.19-.07-.35-.14-.48-.22s-.22-.14-.27-.19a.43.43 0 0 1-.11-.2c-.02-.08-.04-.19-.04-.33 0-.1 0-.18.01-.24 0-.06.02-.12.04-.16s.04-.07.07-.08c.03-.02.06-.02.09-.02.06 0 .15.04.26.11a3.8 3.8 0 0 0 1.07.5q.375.12.87.12c.25 0 .47-.03.68-.1s.38-.16.53-.28.26-.27.34-.45.12-.38.12-.6c0-.24-.06-.45-.17-.62s-.26-.32-.44-.45-.39-.25-.62-.36-.47-.22-.71-.33-.48-.24-.71-.38-.44-.3-.62-.48c-.18-.19-.33-.4-.44-.65s-.17-.55-.17-.9.07-.68.2-.96.31-.52.54-.71.51-.34.83-.43a3.5 3.5 0 0 1 1.61-.1c.19.03.37.08.54.13.17.06.32.12.46.19.13.07.22.12.26.17.04.04.07.08.08.1s.02.06.03.09c0 .04.02.08.02.14v.21c0 .08 0 .15-.01.21 0 .06-.02.11-.03.16q-.015.06-.06.09c-.02.02-.05.03-.08.03-.05 0-.12-.03-.23-.09s-.23-.13-.38-.21-.33-.15-.53-.21c-.21-.06-.44-.1-.69-.1-.24 0-.45.03-.62.1-.18.06-.32.15-.44.26s-.2.23-.26.38-.09.3-.09.46c0 .24.06.44.17.62.11.17.26.33.44.46q.27.195.63.36c.36.165.47.22.72.34.24.11.48.24.72.37q.345.195.63.48c.18.18.33.4.45.65.11.25.17.55.17.89Zm6.98-3.66c0 .43-.07.82-.21 1.16s-.34.64-.61.88c-.26.24-.59.43-.97.56s-.84.2-1.37.2h-.98v3.09s-.01.07-.03.09q-.03.045-.09.06c-.04.02-.1.03-.17.04s-.16.02-.28.02-.2 0-.28-.02a.8.8 0 0 1-.18-.04q-.06-.03-.09-.06c-.03-.03-.03-.06-.03-.09v-7.92c0-.18.05-.3.14-.38s.2-.11.31-.11h1.84c.19 0 .36 0 .53.02s.37.05.6.1.47.15.71.29.45.31.61.51.3.44.39.71.14.56.14.89Zm-1.2.09c0-.35-.07-.64-.2-.88a1.35 1.35 0 0 0-.48-.52c-.19-.11-.39-.19-.6-.22s-.41-.05-.6-.05h-1.06v3.44h1.03c.34 0 .63-.04.86-.13s.42-.21.57-.37.27-.34.35-.56.12-.46.12-.71Zm7.79 5.51c0 .08 0 .15-.01.21 0 .06-.02.11-.05.15s-.05.07-.08.09-.06.03-.1.03h-4.12c-.1 0-.2-.03-.29-.1s-.13-.19-.13-.36v-7.66c0-.17.04-.29.13-.36s.19-.1.29-.1h4.07s.07 0 .1.03c.03.02.05.05.07.09s.03.09.04.15.02.13.02.22c0 .08 0 .15-.02.21-.01.06-.03.11-.04.15-.02.04-.04.07-.07.08-.03.02-.06.03-.1.03h-3.36v2.69h2.88s.07 0 .1.03c.03.02.05.05.07.08s.03.08.04.15c0 .06.01.13.01.22 0 .08 0 .15-.01.21 0 .06-.02.1-.04.14s-.04.06-.07.08-.06.02-.1.02h-2.88v3.07h3.4s.07 0 .1.03.06.05.08.08c.02.04.04.09.05.15 0 .06.01.13.01.22Zm7.5-.74v.19c0 .05-.01.1-.02.14s-.03.08-.04.11a1 1 0 0 1-.09.11c-.04.04-.14.11-.28.2s-.32.18-.53.27-.45.16-.72.22-.57.09-.89.09c-.56 0-1.06-.09-1.51-.28s-.83-.46-1.15-.82-.56-.81-.73-1.34-.26-1.15-.26-1.84.09-1.35.28-1.9.44-1.03.77-1.42.73-.68 1.19-.89c.46-.2.97-.31 1.54-.31.25 0 .49.02.72.07s.45.11.65.18.38.15.53.25c.16.09.26.17.32.23s.1.11.12.14.03.07.04.11q.015.06.03.15c0 .06.01.13.01.21 0 .09 0 .16-.01.23a.42.42 0 0 1-.1.25q-.03.03-.09.03c-.06 0-.15-.04-.26-.13s-.26-.18-.43-.29c-.18-.1-.39-.2-.64-.28-.25-.09-.55-.13-.9-.13-.38 0-.73.08-1.04.23s-.58.38-.8.67-.39.66-.52 1.08c-.12.43-.18.91-.18 1.46s.06 1.02.18 1.44q.18.63.51 1.05c.22.28.49.49.81.64.32.14.68.22 1.09.22.34 0 .64-.04.9-.13.26-.08.47-.18.65-.28s.33-.2.44-.28c.12-.08.21-.13.27-.13.03 0 .06 0 .08.02.02.01.04.04.05.08s.02.09.03.16.01.15.01.25Zm2.72 1.04s0 .07-.03.09q-.03.045-.09.06c-.04.02-.1.03-.18.04-.07.01-.17.02-.28.02s-.2 0-.27-.02a.8.8 0 0 1-.18-.04c-.04-.02-.08-.04-.09-.06a.16.16 0 0 1-.03-.09v-8.24s.01-.07.03-.09.05-.05.1-.06c.04-.02.11-.03.18-.04s.16-.02.26-.02c.11 0 .2 0 .28.02.07.01.13.02.18.04q.06.03.09.06.03.045.03.09zm8.78-.24q.045.15.06.24c0 .06-.02.11-.05.14q-.045.045-.18.06c-.135.015-.19.01-.33.01s-.25 0-.33-.01c-.08 0-.14-.02-.19-.03q-.06-.03-.09-.06c-.03-.03-.04-.06-.06-.1l-.74-2.09h-3.57l-.7 2.06s-.03.07-.05.1-.05.05-.1.07c-.04.02-.1.03-.18.04-.08 0-.18.01-.3.01s-.23 0-.32-.02c-.08-.01-.14-.03-.17-.06s-.05-.08-.05-.14q0-.09.06-.24l2.88-7.97s.04-.09.07-.12.07-.06.13-.07.13-.03.21-.04c.09 0 .2-.01.33-.01.14 0 .26 0 .35.01.09 0 .17.02.23.04s.1.04.13.08c.03.03.06.07.07.12l2.88 7.97Zm-3.69-7.04-1.48 4.28h2.98zm9.64 6.95c0 .09 0 .16-.01.22 0 .06-.02.11-.04.15s-.04.07-.07.09-.06.03-.1.03h-3.79c-.1 0-.2-.03-.29-.1s-.14-.19-.14-.36v-7.95s0-.07.03-.09q.03-.045.09-.06c.04-.02.1-.03.18-.04a2 2 0 0 1 .55 0c.07.01.13.02.18.04q.06.03.09.06.03.045.03.09v7.42h3.08s.07 0 .1.03c.03.02.05.05.07.09s.03.09.04.15.01.14.01.23Zm9.85-7.59c0 .08 0 .16-.01.22s-.02.11-.04.15-.04.06-.07.08-.06.03-.1.03h-2.41v7.44s0 .07-.03.09-.05.05-.09.06c-.04.02-.1.03-.18.04-.07.01-.16.02-.27.02s-.2 0-.27-.02a.8.8 0 0 1-.18-.04q-.06-.03-.09-.06c-.03-.03-.03-.06-.03-.09v-7.44h-2.41s-.07 0-.1-.03-.05-.05-.07-.08a.5.5 0 0 1-.04-.15c-.01-.06-.02-.13-.02-.22s0-.16.02-.22c.01-.06.02-.12.04-.16s.04-.07.07-.09.06-.03.1-.03h5.97s.07 0 .1.03.05.05.07.09.03.09.04.16c0 .06.01.14.01.22Zm8.11 3.7c0 .69-.08 1.32-.24 1.88s-.41 1.03-.73 1.42-.73.69-1.22.9-1.06.31-1.72.31-1.2-.1-1.67-.29q-.705-.285-1.17-.84c-.465-.555-.54-.82-.69-1.37-.15-.54-.22-1.17-.22-1.88s.08-1.29.24-1.84.41-1.02.74-1.41q.495-.585 1.23-.9c.49-.21 1.06-.31 1.72-.31s1.18.09 1.65.29.86.47 1.17.83.54.82.7 1.35c.15.54.23 1.15.23 1.85Zm-1.21.08c0-.49-.04-.94-.13-1.36a3.2 3.2 0 0 0-.43-1.09c-.2-.31-.47-.55-.8-.72-.34-.17-.75-.26-1.25-.26s-.91.09-1.25.28-.61.43-.82.74-.36.67-.45 1.08-.14.85-.14 1.3c0 .5.04.97.13 1.39s.22.79.42 1.1.46.55.8.72c.33.17.75.26 1.26.26s.92-.09 1.26-.28.61-.44.82-.75c.21-.32.36-.68.44-1.1s.13-.86.13-1.32Zm10.28-.08c0 .69-.08 1.32-.24 1.88s-.41 1.03-.73 1.42-.73.69-1.22.9-1.06.31-1.72.31-1.2-.1-1.67-.29q-.705-.285-1.17-.84c-.31-.37-.54-.82-.69-1.37s-.23-1.17-.23-1.88.08-1.29.24-1.84.41-1.02.74-1.41q.495-.585 1.23-.9c.49-.21 1.06-.31 1.72-.31s1.18.09 1.65.29c.47.19.86.47 1.17.83s.54.82.7 1.35c.15.54.23 1.15.23 1.85Zm-1.21.08c0-.49-.04-.94-.13-1.36a3.2 3.2 0 0 0-.43-1.09q-.3-.465-.81-.72c-.33-.17-.75-.26-1.25-.26s-.91.09-1.25.28-.61.43-.82.74q-.315.465-.45 1.08c-.09.41-.14.85-.14 1.3 0 .5.04.97.13 1.39s.23.79.42 1.1c.2.31.47.55.8.72s.75.26 1.26.26.92-.09 1.26-.28.61-.44.82-.75c.21-.32.36-.68.45-1.1s.13-.86.13-1.32Zm7.53 3.81c0 .09 0 .16-.01.22 0 .06-.02.11-.04.15s-.04.07-.07.09-.06.03-.1.03h-3.79c-.1 0-.2-.03-.29-.1s-.14-.19-.14-.36v-7.95s0-.07.03-.09.05-.05.09-.06c.04-.02.1-.03.18-.04a2 2 0 0 1 .55 0c.07.01.13.02.18.04.04.02.08.04.09.06s.03.06.03.09v7.42h3.08s.07 0 .1.03c.03.02.05.05.07.09s.03.09.04.15c0 .06.01.14.01.23Zm5.94-1.91c0 .4-.07.76-.22 1.07s-.35.58-.62.8c-.26.22-.57.38-.93.49s-.74.17-1.15.17c-.29 0-.55-.02-.8-.07a5 5 0 0 1-.66-.18c-.19-.07-.35-.14-.48-.22s-.22-.14-.27-.19-.09-.12-.11-.2-.04-.19-.04-.33c0-.1 0-.18.01-.24 0-.06.02-.12.04-.16s.04-.07.07-.08c.03-.02.06-.02.09-.02.06 0 .15.04.26.11a3.8 3.8 0 0 0 1.07.5q.375.12.87.12c.25 0 .47-.03.68-.1s.38-.16.53-.28.26-.27.34-.45.12-.38.12-.6c0-.24-.06-.45-.17-.62s-.26-.32-.44-.45-.39-.25-.62-.36-.47-.22-.71-.33-.48-.24-.71-.38-.44-.3-.62-.48c-.18-.19-.33-.4-.44-.65s-.17-.55-.17-.9.07-.68.19-.96c.13-.28.31-.52.54-.71s.51-.34.83-.43a3.5 3.5 0 0 1 1.61-.1c.19.03.37.08.54.13.17.06.32.12.45.19s.22.12.26.17c.04.04.07.08.08.1s.02.06.03.09c0 .04.02.08.02.14v.21c0 .08 0 .15-.01.21 0 .06-.02.11-.03.16q-.015.06-.06.09c-.02.02-.05.03-.08.03-.05 0-.13-.03-.23-.09s-.23-.13-.38-.21-.33-.15-.53-.21c-.21-.06-.44-.1-.69-.1-.24 0-.45.03-.62.1-.18.06-.32.15-.44.26s-.2.23-.26.38-.09.3-.09.46c0 .24.06.44.17.62.11.17.26.33.44.46s.39.25.63.36.47.22.72.34c.24.11.48.24.72.37q.345.195.63.48c.18.18.33.4.45.65.11.25.17.55.17.89ZM4.51 50.56c0 .08 0 .16-.01.22s-.02.11-.05.15c-.02.04-.05.06-.08.08s-.06.03-.09.03H1.14v2.92h2.97s.06 0 .09.02.05.04.08.08c.02.03.04.08.05.14 0 .06.01.14.01.23 0 .08 0 .16-.01.22 0 .06-.02.11-.05.15-.02.04-.05.07-.08.09q-.045.03-.09.03H1.14v3.58s0 .06-.03.09-.05.05-.09.07-.1.03-.17.04-.16.02-.28.02c-.11 0-.2 0-.27-.02-.08-.01-.13-.02-.18-.04s-.08-.04-.09-.07S0 58.53 0 58.5v-7.95c0-.17.05-.29.14-.36s.19-.1.29-.1h3.86s.06 0 .09.03.05.05.08.09c.02.04.04.09.05.16 0 .06.01.14.01.22Zm8.87 3.7c0 .69-.08 1.32-.25 1.88-.16.56-.41 1.03-.73 1.42s-.73.69-1.22.9-1.06.32-1.72.32-1.2-.1-1.68-.29q-.705-.285-1.17-.84c-.31-.37-.54-.82-.69-1.37s-.23-1.17-.23-1.88.08-1.29.25-1.84c.16-.55.41-1.02.74-1.41q.495-.585 1.23-.9c.49-.21 1.06-.31 1.72-.31s1.18.09 1.65.29.86.47 1.17.83.54.82.7 1.35c.15.54.23 1.15.23 1.85m-1.21.08c0-.49-.04-.94-.13-1.36a3.2 3.2 0 0 0-.43-1.09q-.3-.465-.81-.72c-.33-.17-.75-.26-1.25-.26s-.91.09-1.25.28-.61.43-.82.74-.36.67-.45 1.08-.13.85-.13 1.3c0 .5.04.97.13 1.39.08.42.23.79.42 1.1.2.31.47.55.8.72s.75.26 1.26.26.92-.09 1.26-.28.61-.44.82-.75.36-.68.44-1.1c.09-.42.13-.86.13-1.32Zm8.81 4.14s0 .07-.02.09c-.01.03-.04.05-.09.07s-.11.03-.19.04-.19.01-.32.01c-.12 0-.21 0-.28-.01-.07 0-.13-.02-.18-.04a.3.3 0 0 1-.1-.08 1 1 0 0 1-.06-.13l-.79-2.02a6 6 0 0 0-.29-.63c-.1-.19-.22-.36-.36-.5q-.21-.21-.48-.33c-.27-.12-.41-.12-.67-.12h-.76v3.65s-.01.07-.03.09-.05.05-.09.06c-.04.02-.1.03-.17.04s-.16.02-.28.02-.2 0-.28-.02a.8.8 0 0 1-.18-.04.4.4 0 0 1-.09-.06.16.16 0 0 1-.03-.09v-7.95c0-.17.04-.29.13-.36s.19-.1.29-.1h1.82c.22 0 .4 0 .54.02.14.01.27.02.39.04.33.06.62.15.88.27s.47.28.64.47.3.41.39.65c.09.25.13.52.13.81s-.04.55-.12.77q-.12.345-.33.6c-.14.17-.32.33-.52.46s-.43.24-.68.32c.14.06.27.14.38.24.12.09.22.21.32.34s.19.28.28.46.18.37.27.58l.77 1.89c.06.16.1.27.12.34s.03.11.03.15Zm-1.72-6.03c0-.34-.08-.62-.23-.85s-.4-.4-.76-.5c-.11-.03-.24-.05-.38-.07s-.32-.02-.55-.02h-.96v2.89h1.11c.3 0 .56-.04.78-.11s.4-.17.55-.31c.14-.13.25-.28.32-.46s.1-.37.1-.58Zm13.07 5.73c0 .09-.02.16-.04.23q-.045.09-.12.15c-.075.06-.1.07-.16.09q-.09.03-.18.03h-.38c-.12 0-.22-.01-.31-.04-.09-.02-.17-.07-.25-.13s-.16-.15-.24-.26a4 4 0 0 1-.25-.42l-2.62-4.88c-.14-.25-.27-.52-.41-.79q-.21-.42-.39-.81h-.01c0 .32.02.64.02.98v6.17s0 .06-.03.09c-.02.03-.05.05-.09.07s-.1.03-.18.04c-.07.01-.16.02-.28.02s-.2 0-.28-.02a.6.6 0 0 1-.17-.04.2.2 0 0 1-.09-.07.16.16 0 0 1-.03-.09v-7.92c0-.18.05-.3.15-.38s.21-.11.33-.11h.56q.195 0 .33.03c.135.03.17.06.24.11q.105.075.21.21c.07.09.14.2.21.34l2.01 3.77c.12.23.24.45.36.67.11.22.23.43.33.65.11.21.21.42.32.63.1.21.21.41.31.62 0-.35-.01-.71-.02-1.09v-5.75s0-.06.03-.09.05-.05.09-.07.1-.03.17-.04c.07 0 .17-.01.28-.01.1 0 .19 0 .27.01s.13.02.17.04.07.04.09.07.03.06.03.09v7.92Zm8.78.07c.04.1.06.18.06.23 0 .06-.01.11-.05.14s-.09.05-.18.06c-.08 0-.19.01-.33.01s-.25 0-.33-.01c-.08 0-.14-.02-.19-.03s-.07-.04-.09-.06c-.02-.03-.04-.06-.06-.1l-.74-2.09h-3.57l-.7 2.06s-.03.07-.05.1-.06.05-.1.07-.1.03-.18.04-.18.01-.3.01-.23 0-.32-.02c-.08-.01-.14-.03-.17-.06a.2.2 0 0 1-.05-.14q0-.09.06-.24l2.88-7.97s.04-.09.07-.12.07-.06.13-.07c.06-.02.13-.03.21-.04.09 0 .19-.01.33-.01s.26 0 .35.01c.09 0 .17.02.23.04s.1.04.13.08c.03.03.06.07.07.12l2.88 7.97Zm-3.69-7.04-1.48 4.28h2.99l-1.5-4.28Zm10.91 7.27s0 .07-.02.09-.04.05-.09.07c-.04.02-.11.03-.19.04s-.19.01-.32.01c-.11 0-.21 0-.28-.01-.07 0-.13-.02-.18-.04a.3.3 0 0 1-.1-.08 1 1 0 0 1-.06-.13l-.79-2.02a6 6 0 0 0-.29-.63c-.1-.19-.22-.36-.35-.5q-.21-.21-.48-.33c-.27-.12-.41-.12-.67-.12h-.76v3.65s-.01.07-.03.09q-.03.045-.09.06c-.06.015-.1.03-.17.04s-.17.02-.28.02-.2 0-.28-.02c-.07-.01-.13-.02-.18-.04s-.08-.04-.09-.06-.03-.06-.03-.09v-7.95c0-.17.05-.29.14-.36s.19-.1.29-.1h1.82c.22 0 .4 0 .54.02.14.01.27.02.39.04.33.06.62.15.88.27.25.12.47.28.64.47s.3.41.39.65c.09.25.13.52.13.81s-.04.55-.12.77-.19.43-.33.6-.32.33-.52.46-.43.24-.68.32c.14.06.27.14.38.24s.22.21.32.34.19.28.28.46c.09.17.18.37.27.58l.77 1.89c.06.16.1.27.12.34q.03.09.03.15Zm-1.72-6.03c0-.34-.07-.62-.23-.85-.15-.23-.4-.4-.76-.5-.11-.03-.24-.05-.37-.07-.14-.01-.32-.02-.55-.02h-.96v2.89h1.11c.3 0 .56-.04.78-.11s.4-.17.55-.31.25-.28.32-.46.1-.37.1-.58Zm9.17 6.03s0 .07-.02.09c-.01.03-.04.05-.09.07s-.11.03-.19.04-.19.01-.32.01c-.12 0-.21 0-.28-.01-.07 0-.13-.02-.18-.04a.3.3 0 0 1-.1-.08 1 1 0 0 1-.06-.13l-.79-2.02a6 6 0 0 0-.29-.63c-.1-.19-.22-.36-.36-.5q-.21-.21-.48-.33c-.27-.12-.41-.12-.67-.12h-.76v3.65s-.01.07-.03.09-.05.05-.09.06c-.04.02-.1.03-.17.04s-.16.02-.28.02-.2 0-.28-.02a.8.8 0 0 1-.18-.04.4.4 0 0 1-.09-.06.16.16 0 0 1-.03-.09v-7.95c0-.17.04-.29.13-.36s.19-.1.29-.1h1.82c.22 0 .4 0 .54.02.14.01.27.02.39.04.33.06.62.15.88.27s.47.28.64.47.3.41.39.65c.09.25.13.52.13.81s-.04.55-.12.77q-.12.345-.33.6c-.14.17-.32.33-.52.46s-.43.24-.68.32c.14.06.27.14.38.24.12.09.22.21.32.34s.19.28.28.46.18.37.27.58l.77 1.89c.06.16.1.27.12.34s.03.11.03.15Zm-1.72-6.03c0-.34-.08-.62-.23-.85s-.4-.4-.76-.5c-.11-.03-.24-.05-.38-.07s-.32-.02-.55-.02h-.96v2.89h1.11c.3 0 .56-.04.78-.11s.4-.17.55-.31c.14-.13.25-.28.32-.46s.1-.37.1-.58Zm10.5 1.81c0 .69-.08 1.32-.24 1.88s-.41 1.03-.73 1.42-.73.69-1.22.9-1.06.32-1.72.32-1.2-.1-1.67-.29q-.705-.285-1.17-.84c-.31-.37-.54-.82-.69-1.37s-.22-1.17-.22-1.88.08-1.29.24-1.84.41-1.02.74-1.41q.495-.585 1.23-.9c.49-.21 1.06-.31 1.72-.31s1.18.09 1.65.29.86.47 1.17.83.54.82.7 1.35c.15.54.23 1.15.23 1.85Zm-1.21.08c0-.49-.04-.94-.13-1.36a3.2 3.2 0 0 0-.43-1.09c-.2-.31-.47-.55-.8-.72-.34-.17-.75-.26-1.25-.26s-.91.09-1.25.28-.61.43-.82.74-.36.67-.45 1.08-.14.85-.14 1.3c0 .5.04.97.13 1.39s.22.79.42 1.1.46.55.8.72c.33.17.75.26 1.26.26s.92-.09 1.26-.28.61-.44.82-.75c.21-.32.36-.68.44-1.1.09-.42.13-.86.13-1.32ZM74.5 58.4a.32.32 0 0 1-.23.24c-.06.02-.14.03-.23.04-.09 0-.2.01-.33.01s-.25 0-.35-.01a.7.7 0 0 1-.23-.04c-.06-.02-.11-.05-.14-.09s-.06-.09-.07-.15l-1.8-6.48h-.01l-1.66 6.48c-.01.06-.03.11-.07.15s-.07.07-.13.09-.13.03-.22.04c-.09 0-.21.01-.35.01s-.27 0-.37-.01c-.1 0-.18-.02-.24-.04a.3.3 0 0 1-.14-.09.35.35 0 0 1-.07-.15l-2.27-7.93a1 1 0 0 1-.04-.24c0-.06.01-.1.05-.13q.06-.045.18-.06c.12-.015.2-.01.34-.01s.24 0 .32.01a.4.4 0 0 1 .18.04c.04.02.07.04.09.07.01.03.03.07.04.12l1.93 7.19 1.83-7.18s.03-.09.05-.12.05-.06.1-.08.11-.03.19-.04c.08 0 .19-.01.32-.01.12 0 .22 0 .3.01s.13.02.18.04.08.04.1.08c.02.03.04.07.05.12l1.97 7.18h.01l1.89-7.18s.03-.08.04-.12c.01-.03.04-.06.08-.08s.1-.03.18-.04c.08 0 .18-.01.31-.01s.24 0 .32.02c.08.01.13.03.17.06.03.03.05.08.05.13s-.01.14-.04.24zm12.46-7.84c0 .08 0 .16-.01.22 0 .06-.02.11-.04.15s-.04.06-.07.08-.06.03-.1.03h-2.41v7.44s0 .07-.03.09q-.03.045-.09.06c-.04.02-.1.03-.18.04-.07.01-.16.02-.28.02s-.2 0-.27-.02-.13-.02-.18-.04a.4.4 0 0 1-.09-.06.16.16 0 0 1-.03-.09v-7.44h-2.41s-.07 0-.1-.03c-.03-.02-.05-.05-.07-.08-.02-.04-.03-.09-.04-.15s-.02-.13-.02-.22 0-.16.02-.22c.01-.06.03-.12.04-.16s.04-.07.07-.09.06-.03.1-.03h5.97s.07 0 .1.03.05.05.07.09.03.09.04.16c0 .06.01.14.01.22m6.67 7.69c.04.1.05.18.06.23 0 .06-.01.11-.05.14s-.09.05-.18.06c-.08 0-.19.01-.33.01s-.25 0-.33-.01c-.08 0-.14-.02-.19-.03a.4.4 0 0 1-.09-.06c-.02-.03-.04-.06-.06-.1l-.74-2.09h-3.57l-.7 2.06s-.03.07-.05.1-.05.05-.1.07c-.04.02-.1.03-.18.04s-.18.01-.3.01-.23 0-.31-.02-.14-.03-.17-.06a.16.16 0 0 1-.04-.14q0-.09.06-.24l2.88-7.97s.04-.09.07-.12.07-.06.13-.07a1 1 0 0 1 .21-.04c.09 0 .19-.01.33-.01s.26 0 .35.01c.09 0 .17.02.22.04.06.02.1.04.13.08.03.03.06.07.07.12l2.88 7.97Zm-3.7-7.04-1.48 4.28h2.99l-1.5-4.28Zm9.82 5.04c0 .4-.07.76-.22 1.08-.15.31-.35.58-.62.8-.26.22-.57.38-.93.49s-.74.17-1.15.17c-.29 0-.55-.02-.8-.07a5 5 0 0 1-.66-.18c-.19-.07-.35-.14-.48-.22s-.22-.14-.27-.19-.09-.12-.11-.2-.04-.19-.04-.33c0-.1 0-.18.01-.24 0-.06.02-.12.04-.16s.04-.07.07-.08.06-.02.09-.02c.06 0 .15.04.26.11.11.08.26.16.43.24.18.09.39.17.64.25s.54.12.87.12c.25 0 .47-.03.68-.1s.38-.16.53-.28.26-.27.34-.45q.12-.27.12-.6c0-.24-.06-.45-.17-.62s-.26-.32-.44-.45-.39-.25-.62-.36-.47-.22-.71-.33-.48-.24-.71-.38-.44-.3-.62-.48c-.18-.19-.33-.4-.44-.65s-.17-.55-.17-.9.07-.68.19-.96c.13-.28.31-.52.54-.71s.51-.34.83-.43a3.5 3.5 0 0 1 1.61-.1c.19.03.37.08.54.13.17.06.32.12.45.19s.22.12.26.17c.04.04.07.08.08.1s.02.06.03.09c0 .04.02.08.02.14v.21c0 .08 0 .15-.01.21 0 .06-.02.11-.03.16q-.015.06-.06.09c-.02.02-.05.03-.08.03-.05 0-.13-.03-.23-.09s-.23-.13-.38-.21-.33-.15-.53-.21c-.21-.06-.44-.1-.69-.1-.24 0-.45.03-.62.1-.18.06-.32.15-.44.26s-.2.23-.26.38-.09.3-.09.46c0 .24.06.44.17.62.11.17.26.32.44.46s.39.25.63.37q.345.165.72.33c.24.11.48.24.72.37s.44.29.63.48.33.4.45.65c.11.25.17.55.17.88Zm7.3 2.22s0 .07-.02.1-.04.05-.09.07c-.04.02-.1.03-.18.04s-.17.02-.29.02c-.15 0-.28 0-.38-.02-.1-.01-.17-.04-.22-.07s-.09-.08-.12-.12l-3.16-4.29v4.29s0 .06-.03.09-.05.05-.09.07-.1.03-.18.04c-.07.01-.17.02-.28.02s-.2 0-.27-.02c-.08-.01-.13-.02-.18-.04s-.08-.04-.09-.07-.03-.06-.03-.09v-8.24s0-.07.03-.09.05-.05.09-.06c.04-.02.1-.03.18-.04a2 2 0 0 1 .55 0c.07.01.13.02.18.04.04.02.08.04.09.06s.03.06.03.09v3.82l3.04-3.82s.06-.07.09-.1.08-.05.13-.06c.05-.02.11-.03.19-.04.07 0 .17-.01.28-.01s.21 0 .28.02c.07.01.13.03.17.04s.07.04.09.07.02.06.02.09c0 .06-.01.11-.04.17s-.08.14-.16.24l-2.85 3.4 3.07 4.07c.07.12.12.19.14.24.02.04.02.08.02.1Zm6.01-2.22c0 .4-.07.76-.22 1.08-.15.31-.35.58-.62.8-.26.22-.57.38-.93.49s-.74.17-1.15.17c-.29 0-.55-.02-.8-.07a5 5 0 0 1-.66-.18c-.19-.07-.36-.14-.49-.22s-.22-.14-.27-.19-.09-.12-.11-.2-.04-.19-.04-.33c0-.1 0-.18.01-.24s.02-.12.04-.16.04-.07.07-.08.06-.02.09-.02c.06 0 .15.04.26.11.11.08.26.16.43.24.18.09.39.17.64.25q.375.12.87.12c.25 0 .47-.03.68-.1s.38-.16.53-.28.26-.27.34-.45q.12-.27.12-.6c0-.24-.06-.45-.17-.62s-.26-.32-.44-.45-.39-.25-.62-.36-.47-.22-.71-.33-.48-.24-.71-.38-.43-.3-.62-.48-.33-.4-.44-.65-.17-.55-.17-.9.07-.68.2-.96.31-.52.54-.71.51-.34.83-.43a3.5 3.5 0 0 1 1.61-.1c.19.03.37.08.55.13.17.06.32.12.45.19s.22.12.26.17c.04.04.07.08.08.1s.02.06.03.09c0 .04.01.08.02.14s0 .12 0 .21c0 .08 0 .15-.01.21s-.02.11-.03.16q-.015.06-.06.09c-.02.02-.05.03-.08.03-.05 0-.12-.03-.23-.09s-.23-.13-.38-.21-.33-.15-.53-.21-.44-.1-.69-.1c-.24 0-.45.03-.62.1-.18.06-.32.15-.44.26s-.2.23-.26.38-.09.3-.09.46c0 .24.06.44.17.62.11.17.26.32.44.46s.39.25.63.37q.345.165.72.33c.24.11.48.24.72.37q.345.195.63.48c.18.18.33.4.45.65s.17.55.17.88Z" style="fill:#1d1d1b"/></svg>