<!-- Generated by IcoMoon.io -->
<svg version="1.1" xmlns="http://www.w3.org/2000/svg" width="640" height="640" viewBox="0 0 640 640">
<g id="icomoon-ignore">
</g>
<path d="M568.889 0h-497.777c-39.111 0-71.111 32-71.111 71.111v497.777c0 39.147 32 71.111 71.111 71.111h248.889v-248.889h-71.111v-88h71.111v-72.889c0-76.942 43.092-130.987 133.902-130.987l64.108 0.071v92.623h-42.56c-35.342 0-48.783 26.524-48.783 51.129v60.089h91.307l-20.196 87.964h-71.111v248.889h142.223c39.111 0 71.111-31.964 71.111-71.111v-497.777c0-39.111-32-71.111-71.111-71.111z"></path>
</svg>
