<!-- Generated by IcoMoon.io -->
<svg version="1.1" xmlns="http://www.w3.org/2000/svg" width="1024" height="1024" viewBox="0 0 1024 1024">
<g id="icomoon-ignore">
</g>
<path d="M682.638 512c0-93.97-76.648-170.631-170.631-170.631s-170.631 76.648-170.631 170.631 76.648 170.631 170.631 170.631 170.631-76.648 170.631-170.631zM774.64 512c0 145.298-117.316 262.634-262.634 262.634s-262.634-117.316-262.634-262.634 117.316-262.634 262.634-262.634 262.634 117.316 262.634 262.634zM846.64 238.706c0 33.994-27.339 61.32-61.32 61.32s-61.32-27.339-61.32-61.32 27.339-61.32 61.32-61.32 61.32 27.339 61.32 61.32zM512 92.044c-74.642 0-234.632-6.005-301.951 20.672-23.34 9.336-40.655 20.672-58.671 38.655s-29.326 35.325-38.655 58.671c-26.67 67.332-20.672 227.303-20.672 301.951s-6.005 234.632 20.672 301.951c9.336 23.34 20.672 40.655 38.655 58.671s35.325 29.326 58.671 38.655c67.332 26.67 227.303 20.672 301.951 20.672s234.632 6.005 301.951-20.672c23.34-9.336 40.655-20.672 58.671-38.655s29.326-35.325 38.655-58.671c26.67-67.332 20.672-227.303 20.672-301.951s6.005-234.632-20.672-301.951c-9.336-23.34-20.672-40.655-38.655-58.671s-35.325-29.326-58.671-38.655c-67.332-26.67-227.303-20.672-301.951-20.672zM1023.939 512c0 70.662 0.662 140.656-3.344 211.306-4.012 81.985-22.658 154.641-82.667 214.643s-132.658 78.648-214.643 82.667c-70.662 4.012-140.656 3.344-211.306 3.344s-140.656 0.662-211.306-3.344c-81.985-4.012-154.641-22.658-214.643-82.667s-78.648-132.658-82.667-214.643c-4.012-70.662-3.344-140.656-3.344-211.306s-0.662-140.656 3.344-211.306c4.012-81.985 22.658-154.641 82.667-214.643s132.658-78.648 214.643-82.667c70.662-4.012 140.656-3.344 211.306-3.344s140.656-0.662 211.306 3.344c81.985 4.012 154.641 22.658 214.643 82.667s78.648 132.658 82.667 214.643c4.012 70.662 3.344 140.656 3.344 211.306z"></path>
</svg>
